<svg xmlns="http://www.w3.org/2000/svg" xmlns:xlink="http://www.w3.org/1999/xlink" width="1080" height="1080" style="width:100%;height:100%;transform:translate3d(0,0,0);content-visibility:visible"><defs><mask id="cn" mask-type="alpha"><use xlink:href="#a"/></mask><mask id="cl" mask-type="alpha"><g filter="url(#b)"><use xlink:href="#c"/></g></mask><mask id="ck" mask-type="alpha"><use xlink:href="#d"/></mask><mask id="cj" mask-type="alpha"><use xlink:href="#e"/></mask><mask id="ch" mask-type="alpha"><g filter="url(#f)"><use xlink:href="#g"/></g></mask><mask id="cf" mask-type="alpha"><use xlink:href="#h"/></mask><mask id="cd" mask-type="alpha"><g filter="url(#i)"><use xlink:href="#j"/></g></mask><mask id="cc" mask-type="alpha"><use xlink:href="#k"/></mask><mask id="cb" mask-type="alpha"><use xlink:href="#l"/></mask><mask id="bZ" mask-type="alpha"><g filter="url(#m)"><use xlink:href="#n"/></g></mask><mask id="bX" mask-type="alpha"><use xlink:href="#o"/></mask><mask id="bV" mask-type="alpha"><g filter="url(#p)"><use xlink:href="#q"/></g></mask><mask id="bU" mask-type="alpha"><use xlink:href="#r"/></mask><mask id="bT" mask-type="alpha"><use xlink:href="#s"/></mask><mask id="bR" mask-type="alpha"><g filter="url(#t)"><use xlink:href="#u"/></g></mask><mask id="bH" mask-type="alpha"><use xlink:href="#v"/></mask><mask id="bG" mask-type="alpha"><use xlink:href="#w"/></mask><mask id="bE" mask-type="alpha"><use xlink:href="#x"/></mask><mask id="bD" mask-type="alpha"><use xlink:href="#y"/></mask><mask id="bB" mask-type="alpha"><use xlink:href="#z"/></mask><mask id="bA" mask-type="alpha"><use xlink:href="#A"/></mask><mask id="by" mask-type="alpha"><use xlink:href="#B"/></mask><mask id="bx" mask-type="alpha"><use xlink:href="#C"/></mask><mask id="bu" mask-type="alpha"><use xlink:href="#D"/></mask><mask id="bv" mask-type="alpha"><use xlink:href="#E"/></mask><mask id="br" mask-type="alpha"><use xlink:href="#F"/></mask><mask id="bs" mask-type="alpha"><use xlink:href="#G"/></mask><mask id="bo" mask-type="alpha"><use xlink:href="#H"/></mask><mask id="bp" mask-type="alpha"><use xlink:href="#I"/></mask><mask id="bl" mask-type="alpha"><use xlink:href="#J"/></mask><mask id="bm" mask-type="alpha"><use xlink:href="#K"/></mask><mask id="bh" mask-type="alpha"><use xlink:href="#L"/></mask><mask id="bd" mask-type="alpha"><use xlink:href="#M"/></mask><mask id="aZ" mask-type="alpha"><use xlink:href="#N"/></mask><mask id="aX" mask-type="alpha"><use xlink:href="#O"/></mask><mask id="aW" mask-type="alpha"><use xlink:href="#P"/></mask><mask id="aV" mask-type="alpha"><use xlink:href="#Q"/></mask><mask id="aT" mask-type="alpha"><use xlink:href="#R"/></mask><mask id="aS" mask-type="alpha"><use xlink:href="#S"/></mask><mask id="aR" mask-type="alpha"><use xlink:href="#T"/></mask><mask id="aP" mask-type="alpha"><use xlink:href="#U"/></mask><mask id="aO" mask-type="alpha"><use xlink:href="#V"/></mask><mask id="aN" mask-type="alpha"><use xlink:href="#W"/></mask><mask id="aL" mask-type="alpha"><use xlink:href="#X"/></mask><mask id="aK" mask-type="alpha"><use xlink:href="#Y"/></mask><mask id="aJ" mask-type="alpha"><use xlink:href="#Z"/></mask><mask id="aG" mask-type="alpha"><use xlink:href="#aa"/></mask><mask id="aF" mask-type="alpha"><use xlink:href="#ab"/></mask><mask id="aE" mask-type="alpha"><use xlink:href="#ac"/></mask><mask id="aC" mask-type="alpha"><use xlink:href="#ad"/></mask><mask id="az" mask-type="alpha"><use xlink:href="#ae"/></mask><mask id="ay" mask-type="alpha"><use xlink:href="#af"/></mask><mask id="ax" mask-type="alpha"><use xlink:href="#ag"/></mask><mask id="av" mask-type="alpha"><use xlink:href="#ah"/></mask><mask id="as" mask-type="alpha"><use xlink:href="#ai"/></mask><mask id="ar" mask-type="alpha"><use xlink:href="#aj"/></mask><mask id="aq" mask-type="alpha"><use xlink:href="#ak"/></mask><mask id="ao" mask-type="alpha"><use xlink:href="#al"/></mask><clipPath id="am"><path d="M0 0h1080v1080H0z"/></clipPath><clipPath id="cg"><path d="M0 0h1920v1079H0z"/></clipPath><clipPath id="cm"><path d="M0 0h1920v1079H0z"/></clipPath><clipPath id="ci"><path d="M0 0h1920v1079H0z"/></clipPath><clipPath id="bY"><path d="M0 0h1920v1079H0z"/></clipPath><clipPath id="ce"><path d="M0 0h1920v1079H0z"/></clipPath><clipPath id="ca"><path d="M0 0h1920v1079H0z"/></clipPath><clipPath id="bQ"><path d="M0 0h1920v1079H0z"/></clipPath><clipPath id="bW"><path d="M0 0h1920v1079H0z"/></clipPath><clipPath id="bS"><path d="M0 0h1920v1079H0z"/></clipPath><clipPath id="bP"><path d="M0 0h1920v1079H0z"/></clipPath><clipPath id="bO"><path d="M0 0h1920v1079H0z"/></clipPath><clipPath id="bN"><path d="M0 0h1920v1079H0z"/></clipPath><clipPath id="bM"><path d="M0 0h1920v1079H0z"/></clipPath><clipPath id="bL"><path d="M0 0h1920v1079H0z"/></clipPath><clipPath id="bK"><path d="M0 0h1920v1079H0z"/></clipPath><clipPath id="bJ"><path d="M0 0h1920v1079H0z"/></clipPath><clipPath id="bI"><path d="M0 0h1920v1079H0z"/></clipPath><clipPath id="bF"><path d="M0 0h1920v1079H0z"/></clipPath><clipPath id="bC"><path d="M0 0h1920v1079H0z"/></clipPath><clipPath id="bz"><path d="M0 0h1920v1079H0z"/></clipPath><clipPath id="bw"><path d="M0 0h1920v1079H0z"/></clipPath><clipPath id="bt"><path d="M0 0h1920v1079H0z"/></clipPath><clipPath id="bq"><path d="M0 0h1920v1079H0z"/></clipPath><clipPath id="bn"><path d="M0 0h1920v1079H0z"/></clipPath><clipPath id="bk"><path d="M0 0h1920v1079H0z"/></clipPath><clipPath id="bg"><path d="M0 0h1920v1079H0z"/></clipPath><clipPath id="bi"><path d="M0 0h1920v1079H0z"/></clipPath><clipPath id="bc"><path d="M0 0h1920v1079H0z"/></clipPath><clipPath id="be"><path d="M0 0h1920v1079H0z"/></clipPath><clipPath id="aY"><path d="M0 0h1920v1079H0z"/></clipPath><clipPath id="ba"><path d="M0 0h1920v1079H0z"/></clipPath><clipPath id="aU"><path d="M0 0h1920v1079H0z"/></clipPath><clipPath id="aQ"><path d="M0 0h1920v1079H0z"/></clipPath><clipPath id="aM"><path d="M0 0h1920v1079H0z"/></clipPath><clipPath id="aI"><path d="M0 0h1920v1079H0z"/></clipPath><clipPath id="aB"><path d="M0 0h1920v1079H0z"/></clipPath><clipPath id="aH"><path d="M0 0h1920v1079H0z"/></clipPath><clipPath id="aD"><path d="M0 0h1920v1079H0z"/></clipPath><clipPath id="au"><path d="M0 0h1920v1079H0z"/></clipPath><clipPath id="aA"><path d="M0 0h1920v1079H0z"/></clipPath><clipPath id="aw"><path d="M0 0h1920v1079H0z"/></clipPath><clipPath id="an"><path d="M0 0h1920v1079H0z"/></clipPath><clipPath id="at"><path d="M0 0h1920v1079H0z"/></clipPath><clipPath id="ap"><path d="M0 0h1920v1079H0z"/></clipPath><path fill="#DB8D74" d="M521.5 303c-16.5 11-42 12.5-66 13.5s-53.834 22.53-51 52c2.5 26 27.5 43 54.5 43.5 30.012.556 61-2.5 100.5-24s36.5-55.5 23.5-77-45-19-61.5-8z" transform="rotate(-6 6207.043 -8631.536)" style="display:block" id="e"/><path fill="#DB8D74" d="M521.5 303c-16.5 11-42 12.5-66 13.5s-53.834 22.53-51 52c2.5 26 27.5 43 54.5 43.5 30.012.556 61-2.5 100.5-24s36.5-55.5 23.5-77-45-19-61.5-8z" transform="rotate(-10 4091.52 -4911.194)" style="display:block" id="l"/><path fill="#DB8D74" d="M482.763 275.603c-62.54 10.163-70.236 76.625-62.591 127.106 8.645 49.929 23.159 76.255 59.745 71.089 30.143-4.48 46.95-27.825 42.718-65.137-4.113-34.11 2.888-55.598 6.279-76.482 5.387-32.209-15.527-60.714-46.15-56.576z" transform="rotate(35.667 107.154 2195.246)" style="display:block" id="o"/><path fill="#DB8D74" d="M521.5 303c-16.5 11-42 12.5-66 13.5s-53.834 22.53-51 52c2.5 26 27.5 43 54.5 43.5 30.012.556 61-2.5 100.5-24s36.5-55.5 23.5-77-45-19-61.5-8z" transform="translate(975 551.5)" style="display:block" id="s"/><path fill="#FFCBA3" d="M208.585-408.855c-7.835-3.645-36.835-2.645-50.532 21.238-12.377 21.58-5.057 49.093 16.487 61.532 0 0 2.21 1.585 4.192 2.604C165-376.5 201.25-403.25 213.777-407.001c-1.277-.999-5.192-1.854-5.192-1.854z" transform="rotate(.02 -2326156.838 4082455.061)" style="display:block" id="v"/><path fill="#B23232" d="m181.611-391.64 1.47 3.198c1.386 3.013.04 6.561-3.004 7.925-3.045 1.363-6.635.025-8.02-2.989l-1.47-3.198c-1.386-3.014-.041-6.561 3.004-7.925 3.044-1.363 6.635-.026 8.02 2.988z" transform="rotate(.02 -2326156.838 4082455.061)" style="display:block" id="w"/><path fill="#FFCBA3" d="M208.585-408.855c-7.835-3.645-36.835-2.645-50.532 21.238-12.377 21.58-5.057 49.093 16.487 61.532 0 0 2.21 1.585 4.192 2.604C165-376.5 201.25-403.25 213.777-407.001c-1.277-.999-5.192-1.854-5.192-1.854z" transform="rotate(.371 -90683.862 160117.324)" style="display:block" id="x"/><path fill="#B23232" d="m183.102-391.47 1.27 3.3c1.196 3.111-.443 6.541-3.661 7.661-3.219 1.12-6.798-.494-7.995-3.604l-1.27-3.301c-1.197-3.111.442-6.54 3.66-7.66 3.22-1.12 6.799.493 7.996 3.604z" transform="rotate(.371 -90683.862 160117.324)" style="display:block" id="y"/><path fill="#FFCBA3" d="M208.585-408.855c-7.835-3.645-36.835-2.645-50.532 21.238-12.377 21.58-5.057 49.093 16.487 61.532 0 0 2.21 1.585 4.192 2.604C165-376.5 201.25-403.25 213.777-407.001c-1.277-.999-5.192-1.854-5.192-1.854z" transform="rotate(1.568 -20927.52 37851.114)" style="display:block" id="z"/><path fill="#B23232" d="m184.23-391.34 1.119 3.378c1.054 3.184-.808 6.524-4.159 7.46-3.35.936-6.92-.888-7.975-4.072l-1.118-3.378c-1.054-3.185.808-6.524 4.158-7.46 3.35-.936 6.921.887 7.975 4.071z" transform="rotate(1.568 -20927.52 37851.114)" style="display:block" id="A"/><path fill="#FFCBA3" d="M208.585-408.855c-7.835-3.645-36.835-2.645-50.532 21.238-12.377 21.58-5.057 49.093 16.487 61.532 0 0 2.21 1.585 4.192 2.604C165-376.5 201.25-403.25 213.777-407.001c-1.277-.999-5.192-1.854-5.192-1.854z" transform="rotate(1.568 -20927.273 37851.03)" style="display:block" id="B"/><path fill="#B23232" d="m184.225-391.341 1.12 3.378c1.054 3.183-.807 6.524-4.156 7.46-3.35.938-6.921-.885-7.976-4.069l-1.12-3.378c-1.053-3.184.808-6.524 4.157-7.46 3.35-.938 6.921.884 7.975 4.069z" transform="rotate(1.568 -20927.273 37851.03)" style="display:block" id="C"/><path fill="#58CC02" d="M318.202-45.464c15.252 94.999-31.572 144.035-95.655 159.537-84.448 20.428-134.794-43.146-151.05-96.71C16-165.5 158.631-177.933 166.59-174.39a21.642 21.642 0 0 0 13.898 1.277c13.72-3.334 29.364-13.462 52.062-24.71 28.634-14.19 72.547 1.407 71.323 40.679 0 0 5.505 56.717 14.329 111.68zm-15 4c15.252 94.999-16.572 140.035-80.655 155.537-84.448 20.428-144.155-35.09-168.05-85.71C36.399-9.976 31.209-79.308 31.209-79.308c-2.443-42.408 8.57-88.445 47.15-106.222 17.568-8.095 35.66-11.367 49.816-6.28 21.939 7.884 30.456 13.877 38.415 17.42 4.363 1.942 127.788 77.963 136.612 132.926z" transform="rotate(-2.646 13776.4 -22136.3)" style="display:block" id="E"/><path fill="#58CC02" d="M318.202-45.464c15.252 94.999-31.572 144.035-95.655 159.537-84.448 20.428-134.794-43.146-151.05-96.71C16-165.5 158.631-177.933 166.59-174.39a21.642 21.642 0 0 0 13.898 1.277c13.72-3.334 29.364-13.462 52.062-24.71 28.634-14.19 72.547 1.407 71.323 40.679 0 0 5.505 56.717 14.329 111.68zm-15 4c15.252 94.999-16.572 140.035-80.655 155.537-84.448 20.428-144.155-35.09-168.05-85.71C36.399-9.976 31.209-79.308 31.209-79.308c-2.443-42.408 8.57-88.445 47.15-106.222 17.568-8.095 35.66-11.367 49.816-6.28 21.939 7.884 30.456 13.877 38.415 17.42 4.363 1.942 127.788 77.963 136.612 132.926z" transform="rotate(-2.989 12395.394 -19598.074)" style="display:block" id="G"/><path fill="#58CC02" d="M318.202-45.464c15.252 94.999-31.572 144.035-95.655 159.537-84.448 20.428-134.794-43.146-151.05-96.71C16-165.5 158.631-177.933 166.59-174.39a21.642 21.642 0 0 0 13.898 1.277c13.72-3.334 29.364-13.462 52.062-24.71 28.634-14.19 72.547 1.407 71.323 40.679 0 0 5.505 56.717 14.329 111.68zm-15 4c15.252 94.999-16.572 140.035-80.655 155.537-84.448 20.428-144.155-35.09-168.05-85.71C36.399-9.976 31.209-79.308 31.209-79.308c-2.443-42.408 8.57-88.445 47.15-106.222 17.568-8.095 35.66-11.367 49.816-6.28 21.939 7.884 30.456 13.877 38.415 17.42 4.363 1.942 127.788 77.963 136.612 132.926z" transform="rotate(-2.94 12644.067 -19953.284)" style="display:block" id="I"/><path fill="#58CC02" d="M318.202-45.464c15.252 94.999-31.572 144.035-95.655 159.537-84.448 20.428-134.794-43.146-151.05-96.71C16-165.5 158.631-177.933 166.59-174.39a21.642 21.642 0 0 0 13.898 1.277c13.72-3.334 29.364-13.462 52.062-24.71 28.634-14.19 72.547 1.407 71.323 40.679 0 0 5.505 56.717 14.329 111.68zm-15 4c15.252 94.999-16.572 140.035-80.655 155.537-84.448 20.428-144.155-35.09-168.05-85.71C36.399-9.976 31.209-79.308 31.209-79.308c-2.443-42.408 8.57-88.445 47.15-106.222 17.568-8.095 35.66-11.367 49.816-6.28 21.939 7.884 30.456 13.877 38.415 17.42 4.363 1.942 127.788 77.963 136.612 132.926z" transform="rotate(-2.985 12394.635 -19619.16)" style="display:block" id="K"/><path fill="#FFC7B8" d="M552.811-154.957c-14.873-8.982-34.962-11.237-52.179-1.891l-28.256 15.339a51.11 51.11 0 0 0-25.616 34.316l-7.98 37.63C434.57-49.714 440-30 458.986-17.428 477.972-4.856 510.5 12 528.501 43.852c6.897 12.204 42.974 11.603 54.934 7.15l38.691-9.376A38.335 38.335 0 0 0 651.93 8.839l6.319-51.72c-.568-6.318-6.973-19.296-11.519-26.102C621-107.5 590-132.5 552.811-154.957z" transform="rotate(-6.966 5759.877 -7826.362)" style="display:block" id="L"/><path fill="#FFC7B8" d="M552.811-154.957c-14.873-8.982-34.962-11.237-52.179-1.891l-28.256 15.339a51.11 51.11 0 0 0-25.616 34.316l-7.98 37.63C434.57-49.714 440-30 458.986-17.428 477.972-4.856 510.5 12 528.501 43.852c6.897 12.204 42.974 11.603 54.934 7.15l38.691-9.376A38.335 38.335 0 0 0 651.93 8.839l6.319-51.72c-.568-6.318-6.973-19.296-11.519-26.102C621-107.5 590-132.5 552.811-154.957z" transform="rotate(-7.776 5285.861 -6961.679)" style="display:block" id="M"/><path fill="#FFC7B8" d="M552.811-154.957c-14.873-8.982-34.962-11.237-52.179-1.891l-28.256 15.339a51.11 51.11 0 0 0-25.616 34.316l-7.98 37.63C434.57-49.714 440-30 458.986-17.428 477.972-4.856 510.5 12 528.501 43.852c6.897 12.204 42.974 11.603 54.934 7.15l38.691-9.376A38.335 38.335 0 0 0 651.93 8.839l6.319-51.72c-.568-6.318-6.973-19.296-11.519-26.102C621-107.5 590-132.5 552.811-154.957z" transform="rotate(-6.966 5759.878 -7826.362)" style="display:block" id="N"/><path fill="#CC348D" d="M745.232-224.137c-.304-28.44 22.505-51.741 50.945-52.045 28.44-.304 51.741 22.506 52.045 50.946.304 28.44-22.505 51.74-50.945 52.044-28.44.304-51.741-22.505-52.045-50.945z" transform="rotate(-3.225 11773.017 -18195.726)" style="display:block" id="O"/><path fill="#0084C2" d="M732.862-124.382c4.759-25.473 29.266-42.264 54.739-37.505s42.265 29.265 37.506 54.738-29.266 42.265-54.739 37.506-42.265-29.266-37.506-54.739z" transform="rotate(3.225 -9135.546 18467.86)" style="display:block" id="P"/><path fill="#AFD5E0" d="M750.527-172.52c-2.856 6.832 153.036 310.917-59.97 264.614s1.1-278.504 4.916-287.632c3.816-9.128 19.234-11.375 34.437-5.019 15.203 6.356 24.433 18.909 20.617 28.037z" transform="rotate(-6.449 6505.285 -9054.674)" style="display:block" id="Q"/><path fill="#CC348D" d="M745.232-224.137c-.304-28.44 22.505-51.741 50.945-52.045 28.44-.304 51.741 22.506 52.045 50.946.304 28.44-22.505 51.74-50.945 52.044-28.44.304-51.741-22.505-52.045-50.945z" transform="rotate(-5.635 7288.783 -10333.741)" style="display:block" id="R"/><path fill="#0084C2" d="M732.862-124.382c4.759-25.473 29.266-42.264 54.739-37.505s42.265 29.265 37.506 54.738-29.266 42.265-54.739 37.506-42.265-29.266-37.506-54.739z" transform="rotate(5.635 -4654.64 10604.073)" style="display:block" id="S"/><path fill="#AFD5E0" d="M750.527-172.52c-2.856 6.832 153.036 310.917-59.97 264.614s1.1-278.504 4.916-287.632c3.816-9.128 19.234-11.375 34.437-5.019 15.203 6.356 24.433 18.909 20.617 28.037z" transform="rotate(-11.27 4258.17 -5109.919)" style="display:block" id="T"/><path fill="#CC348D" d="M745.232-224.137c-.304-28.44 22.505-51.741 50.945-52.045 28.44-.304 51.741 22.506 52.045 50.946.304 28.44-22.505 51.74-50.945 52.044-28.44.304-51.741-22.505-52.045-50.945z" transform="rotate(-5.989 6934.078 -9712.103)" style="display:block" id="U"/><path fill="#0084C2" d="M732.862-124.382c4.759-25.473 29.266-42.264 54.739-37.505s42.265 29.265 37.506 54.738-29.266 42.265-54.739 37.506-42.265-29.266-37.506-54.739z" transform="rotate(5.989 -4300.438 9982.162)" style="display:block" id="V"/><path fill="#AFD5E0" d="M750.527-172.52c-2.856 6.832 153.036 310.917-59.97 264.614s1.1-278.504 4.916-287.632c3.816-9.128 19.234-11.375 34.437-5.019 15.203 6.356 24.433 18.909 20.617 28.037z" transform="rotate(-11.978 4080.432 -4797.177)" style="display:block" id="W"/><path fill="#CC348D" d="M745.232-224.137c-.304-28.44 22.505-51.741 50.945-52.045 28.44-.304 51.741 22.506 52.045 50.946.304 28.44-22.505 51.74-50.945 52.044-28.44.304-51.741-22.505-52.045-50.945z" transform="rotate(-5.989 6934.078 -9712.103)" style="display:block" id="X"/><path fill="#0084C2" d="M732.862-124.382c4.759-25.473 29.266-42.264 54.739-37.505s42.265 29.265 37.506 54.738-29.266 42.265-54.739 37.506-42.265-29.266-37.506-54.739z" transform="rotate(5.989 -4300.438 9982.162)" style="display:block" id="Y"/><path fill="#AFD5E0" d="M750.527-172.52c-2.856 6.832 153.036 310.917-59.97 264.614s1.1-278.504 4.916-287.632c3.816-9.128 19.234-11.375 34.437-5.019 15.203 6.356 24.433 18.909 20.617 28.037z" transform="rotate(-11.976 4080.956 -4798.09)" style="display:block" id="Z"/><path fill="#FFF" d="M638.033-169.849c-41.207 112.587-110.385 302.331-170.99 469.348-11.827 32.594-21.429 51.144-71.04 55.59-84.82 7.601-163.41 13.29-252.041 16.588-15.917.592-33.228-11.412-36.908-42.619-14.53-123.235-31.678-302.891-47.058-481.524-2.828-32.845 23.041-69.646 70.892-70.091 112.027-1.042 349.193-14.511 455.264-10.36 34.205 1.339 62.292 34.624 51.881 63.068z" transform="rotate(-145 914.887 215.665) scale(.5)" style="display:block" id="aa"/><path fill="#FFF" d="M615.125 597.383S518.546 449.096 506.719 481.69c-11.827 32.594-61.105-131.047-110.716-126.601-84.82 7.601-163.41 13.29-252.041 16.588-15.917.592-33.228-11.412-36.908-42.619-14.53-123.235-31.678-302.891-47.058-481.524-2.828-32.845 23.041-69.646 70.892-70.091 112.027-1.042 349.193-14.511 455.264-10.36 34.205 1.339 62.292 34.624 51.881 63.068C596.826-57.262 923.151 9.427 923.151 9.427s83.359 177.85 82.666 179.759c-.334.919-390.692 408.197-390.692 408.197z" transform="rotate(-145 914.887 215.665) scale(.5)" style="display:block" id="ad"/><path fill="#FFF" d="M412.599 78.212c-6.132 3.04-7.257 9.111-7.45 10.036l-2.078 9.955c-.804 3.852 1.678 7.626 5.543 8.43l7.348 1.528c7.924 1.648 15.683-3.417 17.331-11.313.495-2.371 3.308-16.424 3.308-16.424s-16.193-6.083-24.002-2.212zm-14.702-3.734c3.902 5.915 3.593 9.268 3.279 11.761-.411 3.262-1.961 10.655-1.961 10.655-.863 4.124-4.939 6.767-9.102 5.904l-7.271-1.508c-8.179-1.696-13.434-9.638-11.738-17.74.661-3.158 3.897-16.189 3.897-16.189s19.186 1.492 22.896 7.117z" transform="rotate(-.773 44097.058 -72757.563)" style="display:block" id="ab"/><path fill="#FFF" d="M412.599 78.212c-6.132 3.04-7.257 9.111-7.45 10.036l-2.078 9.955c-.804 3.852 1.678 7.626 5.543 8.43l7.348 1.528c7.924 1.648 15.683-3.417 17.331-11.313.495-2.371 3.308-16.424 3.308-16.424s-16.193-6.083-24.002-2.212zm-14.702-3.734c3.902 5.915 3.593 9.268 3.279 11.761-.411 3.262-1.961 10.655-1.961 10.655-.863 4.124-4.939 6.767-9.102 5.904l-7.271-1.508c-8.179-1.696-13.434-9.638-11.738-17.74.661-3.158 3.897-16.189 3.897-16.189s19.186 1.492 22.896 7.117z" transform="rotate(-.773 44097.058 -72757.563)" style="display:block" id="ac"/><path fill="#FFF" d="M638.033-169.849c-41.207 112.587-110.385 302.331-170.99 469.348-11.827 32.594-21.429 51.144-71.04 55.59-84.82 7.601-163.41 13.29-252.041 16.588-15.917.592-33.228-11.412-36.908-42.619-14.53-123.235-31.678-302.891-47.058-481.524-2.828-32.845 23.041-69.646 70.892-70.091 112.027-1.042 349.193-14.511 455.264-10.36 34.205 1.339 62.292 34.624 51.881 63.068z" transform="rotate(-145 914.887 215.665) scale(.5)" style="display:block" id="ae"/><path fill="#FFF" d="M615.125 597.383S518.546 449.096 506.719 481.69c-11.827 32.594-61.105-131.047-110.716-126.601-84.82 7.601-163.41 13.29-252.041 16.588-15.917.592-33.228-11.412-36.908-42.619-14.53-123.235-31.678-302.891-47.058-481.524-2.828-32.845 23.041-69.646 70.892-70.091 112.027-1.042 349.193-14.511 455.264-10.36 34.205 1.339 62.292 34.624 51.881 63.068C596.826-57.262 923.151 9.427 923.151 9.427s83.359 177.85 82.666 179.759c-.334.919-390.692 408.197-390.692 408.197z" transform="rotate(-145 914.887 215.665) scale(.5)" style="display:block" id="ah"/><path fill="#FFF" d="M412.599 78.212c-6.132 3.04-7.257 9.111-7.45 10.036l-2.078 9.955c-.804 3.852 1.678 7.626 5.543 8.43l7.348 1.528c7.924 1.648 15.683-3.417 17.331-11.313.495-2.371 3.308-16.424 3.308-16.424s-16.193-6.083-24.002-2.212zm-14.702-3.734c3.902 5.915 3.593 9.268 3.279 11.761-.411 3.262-1.961 10.655-1.961 10.655-.863 4.124-4.939 6.767-9.102 5.904l-7.271-1.508c-8.179-1.696-13.434-9.638-11.738-17.74.661-3.158 3.897-16.189 3.897-16.189s19.186 1.492 22.896 7.117z" transform="rotate(-3.213 11201.96 -17097.366)" style="display:block" id="af"/><path fill="#FFF" d="M412.599 78.212c-6.132 3.04-7.257 9.111-7.45 10.036l-2.078 9.955c-.804 3.852 1.678 7.626 5.543 8.43l7.348 1.528c7.924 1.648 15.683-3.417 17.331-11.313.495-2.371 3.308-16.424 3.308-16.424s-16.193-6.083-24.002-2.212zm-14.702-3.734c3.902 5.915 3.593 9.268 3.279 11.761-.411 3.262-1.961 10.655-1.961 10.655-.863 4.124-4.939 6.767-9.102 5.904l-7.271-1.508c-8.179-1.696-13.434-9.638-11.738-17.74.661-3.158 3.897-16.189 3.897-16.189s19.186 1.492 22.896 7.117z" transform="rotate(-3.213 11201.96 -17097.366)" style="display:block" id="ag"/><path fill="#FFF" d="M638.033-169.849c-41.207 112.587-110.385 302.331-170.99 469.348-11.827 32.594-21.429 51.144-71.04 55.59-84.82 7.601-163.41 13.29-252.041 16.588-15.917.592-33.228-11.412-36.908-42.619-14.53-123.235-31.678-302.891-47.058-481.524-2.828-32.845 23.041-69.646 70.892-70.091 112.027-1.042 349.193-14.511 455.264-10.36 34.205 1.339 62.292 34.624 51.881 63.068z" transform="rotate(-145 914.887 215.665) scale(.5)" style="display:block" id="ai"/><path fill="#FFF" d="M615.125 597.383S518.546 449.096 506.719 481.69c-11.827 32.594-61.105-131.047-110.716-126.601-84.82 7.601-163.41 13.29-252.041 16.588-15.917.592-33.228-11.412-36.908-42.619-14.53-123.235-31.678-302.891-47.058-481.524-2.828-32.845 23.041-69.646 70.892-70.091 112.027-1.042 349.193-14.511 455.264-10.36 34.205 1.339 62.292 34.624 51.881 63.068C596.826-57.262 923.151 9.427 923.151 9.427s83.359 177.85 82.666 179.759c-.334.919-390.692 408.197-390.692 408.197z" transform="rotate(-145 914.887 215.665) scale(.5)" style="display:block" id="al"/><path fill="#FFF" d="M412.599 78.212c-6.132 3.04-7.257 9.111-7.45 10.036l-2.078 9.955c-.804 3.852 1.678 7.626 5.543 8.43l7.348 1.528c7.924 1.648 15.683-3.417 17.331-11.313.495-2.371 3.308-16.424 3.308-16.424s-16.193-6.083-24.002-2.212zm-14.702-3.734c3.902 5.915 3.593 9.268 3.279 11.761-.411 3.262-1.961 10.655-1.961 10.655-.863 4.124-4.939 6.767-9.102 5.904l-7.271-1.508c-8.179-1.696-13.434-9.638-11.738-17.74.661-3.158 3.897-16.189 3.897-16.189s19.186 1.492 22.896 7.117z" transform="rotate(-5 7434.471 -10806.925)" style="display:block" id="aj"/><path fill="#FFF" d="M412.599 78.212c-6.132 3.04-7.257 9.111-7.45 10.036l-2.078 9.955c-.804 3.852 1.678 7.626 5.543 8.43l7.348 1.528c7.924 1.648 15.683-3.417 17.331-11.313.495-2.371 3.308-16.424 3.308-16.424s-16.193-6.083-24.002-2.212zm-14.702-3.734c3.902 5.915 3.593 9.268 3.279 11.761-.411 3.262-1.961 10.655-1.961 10.655-.863 4.124-4.939 6.767-9.102 5.904l-7.271-1.508c-8.179-1.696-13.434-9.638-11.738-17.74.661-3.158 3.897-16.189 3.897-16.189s19.186 1.492 22.896 7.117z" transform="rotate(-5 7434.471 -10806.925)" style="display:block" id="ak"/><filter id="b" filterUnits="objectBoundingBox" x="0%" y="0%" width="100%" height="100%"><feComponentTransfer in="SourceGraphic"><feFuncA type="table" tableValues="1.0 0.0"/></feComponentTransfer></filter><filter id="f" filterUnits="objectBoundingBox" x="0%" y="0%" width="100%" height="100%"><feComponentTransfer in="SourceGraphic"><feFuncA type="table" tableValues="1.0 0.0"/></feComponentTransfer></filter><filter id="i" filterUnits="objectBoundingBox" x="0%" y="0%" width="100%" height="100%"><feComponentTransfer in="SourceGraphic"><feFuncA type="table" tableValues="1.0 0.0"/></feComponentTransfer></filter><filter id="m" filterUnits="objectBoundingBox" x="0%" y="0%" width="100%" height="100%"><feComponentTransfer in="SourceGraphic"><feFuncA type="table" tableValues="1.0 0.0"/></feComponentTransfer></filter><filter id="p" filterUnits="objectBoundingBox" x="0%" y="0%" width="100%" height="100%"><feComponentTransfer in="SourceGraphic"><feFuncA type="table" tableValues="1.0 0.0"/></feComponentTransfer></filter><filter id="t" filterUnits="objectBoundingBox" x="0%" y="0%" width="100%" height="100%"><feComponentTransfer in="SourceGraphic"><feFuncA type="table" tableValues="1.0 0.0"/></feComponentTransfer></filter><g style="display:block" id="g"><path fill="#FFF" d="M638.033-169.849c-41.207 112.587 498.002-704.754 437.397-537.737-11.827 32.594-744.654 15.526-794.265 19.972-84.82 7.601-1090.514 743.028-1179.146 746.325-15.917.593 94.439 209.272 90.759 178.065-14.53-123.236 483.127-306.895 467.747-485.528-1.182-13.726 402.119 68.144 410.47 55.978 11.633-16.946 32.039-29.524 59.893-29.783 112.027-1.042 349.193-14.511 455.264-10.36 34.205 1.339 62.291 34.624 51.881 63.068z" transform="rotate(-145 914.887 215.665) scale(.5)"/><path fill-opacity="0" stroke="#9DEEC7" stroke-width="6.5" d="M1230.584 803.67C1279.75 769.375 824.5 949.5 897.22 898.474c14.192-9.958 309.445 207.2 331.04 219.606 36.92 21.212 659.74 8.42 696.987 32.488 6.69 4.322 21.337-112.796 13.894-98.96-29.391 54.642-285.89-12.858-330.821 64.717-3.453 5.96-145.156-143.233-152.065-140.645-9.625 3.604-21.59 2.904-33.072-4.979-46.183-31.7-147.183-94.2-189.437-126.32-13.625-10.359-15.583-32.046-3.162-40.71z"/></g><g style="display:block" id="d"><path fill="#DB8D74" d="M521.5 303c-16.5 11-42 12.5-66 13.5s-53.834 22.53-51 52c2.5 26 27.5 43 54.5 43.5 30.012.556 61-2.5 100.5-24s36.5-55.5 23.5-77-45-19-61.5-8z" transform="rotate(-6 6207.043 -8631.536)"/><path fill-opacity="0" stroke="#3D3D3D" stroke-width="2" d="M1486.56 848.357c-15.26 12.664-40.464 16.822-64.228 20.325-23.764 3.503-51.184 28.034-45.285 57.046 5.204 25.596 31.844 39.89 58.748 37.565 29.906-2.584 60.405-8.863 97.441-34.374 37.036-25.51 30.499-59.011 15.323-79.034-15.177-20.024-46.74-14.193-62-1.528z"/></g><g style="display:block" id="n"><path fill="#FFF" d="M638.033-169.849c-41.207 112.587 498.002-704.754 437.397-537.737-11.827 32.594-744.654 15.526-794.265 19.972-84.82 7.601-1090.514 743.028-1179.146 746.325-15.917.593 94.439 209.272 90.759 178.065-14.53-123.236 483.127-306.895 467.747-485.528-1.182-13.726 402.119 68.144 410.47 55.978 11.633-16.946 32.039-29.524 59.893-29.783 112.027-1.042 349.193-14.511 455.264-10.36 34.205 1.339 62.291 34.624 51.881 63.068z" transform="rotate(-145 914.887 215.665) scale(.5)"/><path fill-opacity="0" stroke="#9DEEC7" stroke-width="6.5" d="M1230.584 803.67C1279.75 769.375 824.5 949.5 897.22 898.474c14.192-9.958 309.445 207.2 331.04 219.606 36.92 21.212 659.74 8.42 696.987 32.488 6.69 4.322 21.337-112.796 13.894-98.96-29.391 54.642-285.89-12.858-330.821 64.717-3.453 5.96-145.156-143.233-152.065-140.645-9.625 3.604-21.59 2.904-33.072-4.979-46.183-31.7-147.183-94.2-189.437-126.32-13.625-10.359-15.583-32.046-3.162-40.71z"/></g><g style="display:block" id="k"><path fill="#DB8D74" d="M521.5 303c-16.5 11-42 12.5-66 13.5s-53.834 22.53-51 52c2.5 26 27.5 43 54.5 43.5 30.012.556 61-2.5 100.5-24s36.5-55.5 23.5-77-45-19-61.5-8z" transform="rotate(-10 4091.52 -4911.194)"/><path fill-opacity="0" stroke="#3D3D3D" stroke-width="2" d="M1481.172 843.712c-14.34 13.698-39.191 19.603-62.653 24.756-23.462 5.152-49.104 31.536-41.195 60.066 6.976 25.17 34.549 37.571 61.225 33.375 29.653-4.664 59.64-13.054 94.806-41.087 35.166-28.032 26.308-60.995 9.772-79.91-16.536-18.917-47.616-10.898-61.955 2.8z"/></g><g style="display:block" id="u"><path fill="#FFF" d="M638.033-169.849c-41.207 112.587 498.002-704.754 437.397-537.737-11.827 32.594-744.654 15.526-794.265 19.972-84.82 7.601-1090.514 743.028-1179.146 746.325-15.917.593 94.439 209.272 90.759 178.065-14.53-123.236 483.127-306.895 467.747-485.528-1.182-13.726 402.119 68.144 410.47 55.978 11.633-16.946 32.039-29.524 59.893-29.783 112.027-1.042 349.193-14.511 455.264-10.36 34.205 1.339 62.291 34.624 51.881 63.068z" transform="rotate(-145 914.887 215.665) scale(.5)"/><path fill-opacity="0" stroke="#9DEEC7" stroke-width="6.5" d="M1230.584 803.67C1279.75 769.375 824.5 949.5 897.22 898.474c14.192-9.958 309.445 207.2 331.04 219.606 36.92 21.212 659.74 8.42 696.987 32.488 6.69 4.322 21.337-112.796 13.894-98.96-29.391 54.642-285.89-12.858-330.821 64.717-3.453 5.96-145.156-143.233-152.065-140.645-9.625 3.604-21.59 2.904-33.072-4.979-46.183-31.7-147.183-94.2-189.437-126.32-13.625-10.359-15.583-32.046-3.162-40.71z"/></g><g style="display:block" id="r"><path fill="#DB8D74" d="M521.5 303c-16.5 11-42 12.5-66 13.5s-53.834 22.53-51 52c2.5 26 27.5 43 54.5 43.5 30.012.556 61-2.5 100.5-24s36.5-55.5 23.5-77-45-19-61.5-8z" transform="translate(975 551.5)"/><path fill-opacity="0" stroke="#3D3D3D" stroke-width="2" d="M1496.5 854.5c-16.5 11-42 12.5-66 13.5s-53.834 22.53-51 52c2.5 26 27.5 43 54.5 43.5 30.012.556 61-2.5 100.5-24s36.5-55.5 23.5-77-45-19-61.5-8z"/></g><linearGradient id="bj" spreadMethod="pad" gradientUnits="userSpaceOnUse" x1="475" y1="-110.003" x2="566.067" y2="-38.825"><stop offset="0%" stop-color="#FFA75F"/><stop offset="50%" stop-color="#FFB78B"/><stop offset="100%" stop-color="#FFC7B8"/></linearGradient><linearGradient id="bf" spreadMethod="pad" gradientUnits="userSpaceOnUse" x1="475" y1="-110.003" x2="566.067" y2="-38.825"><stop offset="0%" stop-color="#FFA75F"/><stop offset="50%" stop-color="#FFB78B"/><stop offset="100%" stop-color="#FFC7B8"/></linearGradient><linearGradient id="bb" spreadMethod="pad" gradientUnits="userSpaceOnUse" x1="475" y1="-110.003" x2="566.067" y2="-38.825"><stop offset="0%" stop-color="#FFA75F"/><stop offset="50%" stop-color="#FFB78B"/><stop offset="100%" stop-color="#FFC7B8"/></linearGradient></defs><g clip-path="url(#am)"><g clip-path="url(#au)" style="display:block" transform="matrix(-1 0 0 1 1916 -23.5)"><g style="display:block"><path fill="#58CC02" d="M1230.485 803.743c49.265-34.368 132.015-92.243 204.643-143.202 2.002-1.405 3.906-2.71 5.76-3.878 4.8-3.029 9.266-5.15 14.243-5.77 6.718-.835 14.365 1.067 25.027 7.176 36.967 21.181 70.905 41.494 108.168 65.572 4.658 3.01 6.174 7.172 6.757 10.689.983 5.927-.897 11.436-3.946 17.277-3.012 5.768-6.232 11.558-9.996 18.377C1550.5 825.5 1502 911.25 1472.57 961.824c-4.698 8.072-10.57 15.176-16.747 21.73-4.887 5.184-14.269 14.656-20.551 18.658-11.597 7.387-24.773 4.218-34.089-2.01C1359.001 972 1261.5 906.5 1219.247 875.38c-8.648-6.368-11.976-19.711-10.496-25.73 2.25-9.15 4.91-17.376 8.08-24.263 3.17-6.887 7.327-17.231 13.654-21.644z"/><path stroke="#58CC02" stroke-width="6.5" d="M1230.485 803.743c49.265-34.368 132.015-92.243 204.643-143.202 2.002-1.405 3.906-2.71 5.76-3.878 4.8-3.029 9.266-5.15 14.243-5.77 6.718-.835 14.365 1.067 25.027 7.176 36.967 21.181 70.905 41.494 108.168 65.572 4.658 3.01 6.174 7.172 6.757 10.689.983 5.927-.897 11.436-3.946 17.277-3.012 5.768-6.232 11.558-9.996 18.377C1550.5 825.5 1502 911.25 1472.57 961.824c-4.698 8.072-10.57 15.176-16.747 21.73-4.887 5.184-14.269 14.656-20.551 18.658-11.597 7.387-24.773 4.218-34.089-2.01C1359.001 972 1261.5 906.5 1219.247 875.38c-8.648-6.368-11.976-19.711-10.496-25.73 2.25-9.15 4.91-17.376 8.08-24.263 3.17-6.887 7.327-17.231 13.654-21.644z" fill="none"/><path fill="#FFF" d="M1230.584 803.67c49.166-34.295 131.916-92.17 204.637-143.195 14.192-9.958 23.444-14.802 45.039-2.395 36.92 21.212 70.74 41.42 107.987 65.488 6.69 4.322 10.337 14.203 2.894 28.04-29.391 54.642-73.89 133.142-118.821 210.717-8.262 14.263-29.411 21.917-49.137 8.376-46.183-31.7-147.183-94.2-189.437-126.32-13.625-10.359-15.583-32.046-3.162-40.71z"/><path stroke="#9DEEC7" stroke-width="6.5" d="M1230.584 803.67c49.166-34.295 131.916-92.17 204.637-143.195 14.192-9.958 23.444-14.802 45.039-2.395 36.92 21.212 70.74 41.42 107.987 65.488 6.69 4.322 10.337 14.203 2.894 28.04-29.391 54.642-73.89 133.142-118.821 210.717-8.262 14.263-29.411 21.917-49.137 8.376-46.183-31.7-147.183-94.2-189.437-126.32-13.625-10.359-15.583-32.046-3.162-40.71z" fill="none"/></g><g mask="url(#av)" style="display:block"><g clip-path="url(#aw)"><path fill="#A175F9" d="M313.521 147.075c-2.496-1.112-3.599-3.964-2.476-6.398l35.505-79.229c12.52-26.807 39.038-43.041 67.437-37.268 27.928 5.677 46.166 30.165 46.598 59.638l2.639 83.506c.083 2.583-1.929 4.771-4.581 4.99-10.243.847-37.222-1.403-68.965-6.021-33.346-4.852-64.665-14.098-76.157-19.218z" transform="rotate(-6.498 5954.888 -8177.312)" style="display:block"/><g style="display:block"><path fill="#A570FF" d="M1337.098 765.128c3.046-6.846 13.44-9.872 20.287-6.826 6.847 3.045 12.919 14.033 9.873 20.88 0 0-6.738 18.644-12.795 29.859-5.327 9.863-13.092 21.116-13.092 21.116-6.147 7.333-11.067 9.928-17.914 6.882-6.846-3.046-9.928-11.066-6.881-17.914 0 0 6.129-13.396 10.21-24.133 4.081-10.737 10.312-29.864 10.312-29.864z"/><path fill="#593F86" d="M1337.098 765.128s8.26-30.413 10.769-56.806l36.385 6.131c-.666 25.715-16.31 63.159-16.31 63.159-3.03 1.514-13.455 4.143-20.382 1.06-6.36-2.829-9.611-10.494-10.462-13.544z"/><path fill="#FFC6B7" d="M1387.951 759.675c-.442 5.514-5.27 9.625-10.784 9.184-5.514-.442-9.626-5.27-9.185-10.784.442-5.514 5.27-9.627 10.785-9.185 5.514.442 9.626 5.271 9.184 10.785z"/><path fill="#593F86" d="M1364.283 704.477 1315 730.72c-11.628 6.191-8.08 23.714 5.041 24.893l79.246 7.12c13.16 1.182 19.754-15.514 9.339-23.643l-44.343-34.612z"/><path fill="#FFC6B7" d="M1360.746 735.612c-6.726-5.005-9.767-8.603-14.501-8.983-4.648-.372-8.797 2.496-10.255 6.706 5.08.476 17.453 1.606 24.756 2.277z"/></g><path fill="#FFC6B7" d="m451.664 91.553 4.291.88c6.08 1.245 9.998 7.024 8.752 12.907-1.246 5.883-7.186 9.642-13.266 8.396l-4.291-.88c-6.08-1.245-9.999-7.024-8.752-12.907 1.247-5.883 7.186-9.642 13.266-8.396zM416.72 32.314c24.256 5.058 40.846 27.56 38.541 52.277l-5.116 39.92c-2.524 13.181-12.859 21.445-25.152 20.885-12.066-.55-19.554-1.305-35.019-2.624-15.465-1.319-26.56-9.131-26.56-9.131-12.999-2.711-21.339-15.466-18.628-28.489a24.11 24.11 0 0 1 .936-3.302l13.566-37.444c8.519-23.515 32.991-37.189 57.432-32.092z" transform="rotate(-2.498 14030.868 -21861.44)" style="display:block"/><path fill="#FFF" d="M412.599 78.212c-6.132 3.04-7.257 9.111-7.45 10.036l-2.078 9.955c-.804 3.852 1.678 7.626 5.543 8.43l7.348 1.528c7.924 1.648 15.683-3.417 17.331-11.313.495-2.371 3.308-16.424 3.308-16.424s-16.193-6.083-24.002-2.212zm-14.702-3.734c3.902 5.915 3.593 9.268 3.279 11.761-.411 3.262-1.961 10.655-1.961 10.655-.863 4.124-4.939 6.767-9.102 5.904l-7.271-1.508c-8.179-1.696-13.434-9.638-11.738-17.74.661-3.158 3.897-16.189 3.897-16.189s19.186 1.492 22.896 7.117z" transform="rotate(-3.213 11201.96 -17097.366)" style="display:block"/><g mask="url(#ax)" style="display:block"><path fill="#3D3D3D" d="M1409.288 668.553c-.622 3.812-3.852 6.188-7.4 5.642-3.547-.546-5.939-3.966-5.447-7.618s1.35-9.862 1.35-9.862l13.043 1.346s-.924 6.68-1.546 10.492zm-30.61-3.374c-.502 4.315-3.853 6.187-7.4 5.641-3.547-.546-5.893-4.195-5.447-7.617.457-3.507.787-6.356.787-6.356l12.604 1.438s-.042 2.579-.544 6.894z"/></g><g mask="url(#ay)" style="display:block"><path fill="#A570FF" d="m1420.09 653.795-1.634 16.462-71.006-8.972 2.713-17.733 69.927 10.243z"/></g><path fill="#FFC6B7" d="M392.238 134.582a27.84 27.84 0 0 1 .557-7.168c3.172-15.155 18.137-24.871 33.426-21.7 4.08.846 7.06 2.538 9.233 4.487 5.034 4.515-43.121 26.188-43.216 24.381z" transform="rotate(-3.213 11201.96 -17097.366)" style="display:block"/><path fill="#EE9583" d="M404.942 119.172c5.947-7.414 11.462-9.776 16.117-6.04.85.682.993 1.938.319 2.804a1.942 1.942 0 0 1-2.757.333c-2.469-1.981-5.872-.523-10.64 5.42a1.942 1.942 0 0 1-2.762.291 2.018 2.018 0 0 1-.277-2.808zm-7.456-4.456c3.258.67 6.439-1.349 7.106-4.511.667-3.162-3.654-11.853-3.654-11.853l-.905.784c-2.011 1.78-6.716 6.163-7.239 8.641-.667 3.162 1.434 6.268 4.692 6.939z" transform="rotate(-2.498 14156.316 -22104.442)" style="display:block"/><path fill="#A570FF" d="M317.487 151.331c14.939-40.032 33.041-127.467 89.887-122.518.776.068 2.005.598 2.465 1.346 6.887 11.194-19.606 96.808-24.137 118.202-.547 2.583-2.975 3.862-5.614 3.912-18.096.341-48.365-.63-62.601-.942zM428.486 34.052c17.261 6.726 29.208 23.333 28.949 47.181 0 0-13.27.031-25.927-3.19C412.026 73.4 407.86 55.21 408 35.146l-5.375-6.112c8.329-.365 18.488 2.143 25.862 5.017z" transform="rotate(-2.498 14030.868 -21861.44)" style="display:block"/></g></g><g mask="url(#az)" style="display:block"><g clip-path="url(#aA)"><path fill="#E6A000" d="M0-59.292c32.723 0 59.292 26.569 59.292 59.292S32.723 59.292 0 59.292-59.292 32.723-59.292 0-32.723-59.292 0-59.292z" transform="matrix(.38973 .12663 -.0618 .19021 1493.225 685.26)" style="display:block"/><g style="display:block"><path fill="#FFC700" d="M1479.054 669.314c9.753-2.106 24.531 2.008 33.007 9.188 8.475 7.18 7.44 14.708-2.315 16.814-9.753 2.106-24.531-2.007-33.007-9.188-8.475-7.18-7.439-14.708 2.315-16.814z"/><path fill="#FFE700" d="M1506.04 676.633a28.068 28.068 0 0 1 3.133 2.286c1.821 1.542 3.122 3.104 3.912 4.604.165.313-.197.356-.652.456-4.6 1.008-22.786 4.933-25.267 5.457-.34.072-.928.213-1.803-.188-2.292-1.052-4.25-2.435-5.976-3.898a19.501 19.501 0 0 1-2.538-2.554c-.142-.175-.415-.45.61-.672 4.43-.957 20.728-4.438 26.91-5.773.817-.177 1.297.045 1.672.282zm-24.7-5.462c5.383-1.163 12.583-.078 18.92 2.509.45.184 1.581.769.25 1.082-1.333.313-21.493 4.574-23.888 5.091-1.403.303-1.725-.438-1.795-.671-1.11-3.721 1.123-6.847 6.512-8.011z"/></g><path fill="#E6A000" d="M0-59.292c32.723 0 59.292 26.569 59.292 59.292S32.723 59.292 0 59.292-59.292 32.723-59.292 0-32.723-59.292 0-59.292z" transform="matrix(.4813 .24524 -.13166 .2584 1514.025 734.632)" style="display:block"/><g style="display:block"><path fill="#FFC700" d="M1499.117 709.767c13.434-1.32 31.865 7.007 41.167 18.597 9.302 11.59 5.953 22.057-7.48 23.377-13.434 1.32-31.865-7.007-41.167-18.597-9.302-11.59-5.953-22.057 7.48-23.377z"/><path fill="#FFE700" d="M1532.827 724.7a34.675 34.675 0 0 1 3.535 3.763c1.998 2.49 3.304 4.919 3.953 7.173.136.47-.354.47-.98.534-6.34.643-31.386 3.102-34.8 3.422-.468.043-1.283.143-2.332-.573-2.75-1.876-4.97-4.164-6.865-6.525-1.101-1.373-1.992-2.727-2.679-4.043-.142-.271-.43-.707.982-.846 6.102-.6 28.537-2.752 37.053-3.588 1.125-.111 1.7.283 2.133.682zm-31.18-11.92c7.415-.728 16.636 2.03 24.322 6.762.546.337 1.887 1.356.046 1.572-1.841.217-29.584 2.815-32.882 3.14-1.932.19-2.162-.914-2.193-1.255-.487-5.449 3.284-9.489 10.706-10.218z"/></g><path fill="#E6A000" d="M0-59.292c32.723 0 59.292 26.569 59.292 59.292S32.723 59.292 0 59.292-59.292 32.723-59.292 0-32.723-59.292 0-59.292z" transform="matrix(.6486 .38971 -.22476 .37406 1500.135 794.898)" style="display:block"/><g style="display:block"><path fill="#FFC700" d="M1482.475 757.503c19.29-1.18 44.282 12.171 55.821 29.82 11.54 17.65 5.256 32.914-14.034 34.095-19.29 1.18-44.282-12.171-55.821-29.82-11.54-17.65-5.256-32.914 14.034-34.095z"/><path fill="#FFE700" d="M1528.227 781.484a46.427 46.427 0 0 1 4.478 5.761c2.48 3.791 3.983 7.453 4.578 10.82.125.703-.572.674-1.472.732-9.107.587-45.072 2.785-49.973 3.061-.67.038-1.843.139-3.23-.98-3.636-2.926-6.46-6.434-8.81-10.029-1.367-2.09-2.437-4.14-3.222-6.123-.162-.409-.509-1.069 1.52-1.193 8.761-.536 40.97-2.43 53.198-3.18 1.616-.098 2.376.517 2.933 1.131zm-42.595-19.386c10.65-.651 23.358 3.948 33.597 11.378.727.528 2.484 2.11-.165 2.324-2.648.214-42.467 2.464-47.203 2.754-2.775.17-2.942-1.473-2.935-1.979.099-8.074 6.049-13.825 16.706-14.477z"/></g><path fill="#E6A000" d="M0-59.292c32.723 0 59.292 26.569 59.292 59.292S32.723 59.292 0 59.292-59.292 32.723-59.292 0-32.723-59.292 0-59.292z" transform="matrix(.68536 .4799 -.32116 .45866 1420.606 831.336)" style="display:block"/><g style="display:block"><path fill="#FFC700" d="M1406.454 784.874c22.482-1.404 49.164 15.042 59.597 36.735 10.432 21.692.663 40.415-21.819 41.82-22.482 1.404-49.164-15.043-59.597-36.735-10.432-21.692-.663-40.416 21.819-41.82z"/><path fill="#FFE700" d="M1455.376 814.418a47.284 47.284 0 0 1 4.228 7.082c2.24 4.66 3.377 9.157 3.511 13.292.028.863-.772.826-1.822.895-10.618.7-52.534 3.315-58.242 3.643-.78.044-2.152.165-3.572-1.21-3.72-3.602-6.406-7.914-8.531-12.332-1.236-2.57-2.135-5.088-2.716-7.525-.12-.502-.412-1.313 1.952-1.46 10.21-.638 47.738-2.89 61.989-3.78 1.883-.118 2.66.639 3.203 1.395zm-46.03-23.896c12.412-.776 26.34 4.9 36.949 14.044.754.65 2.524 2.596-.572 2.852-3.095.257-49.473 2.927-54.992 3.272-3.235.202-3.157-1.815-3.067-2.436 1.442-9.91 9.261-16.956 21.683-17.732z"/></g><path fill="#E6A000" d="M0-59.292c32.723 0 59.292 26.569 59.292 59.292S32.723 59.292 0 59.292-59.292 32.723-59.292 0-32.723-59.292 0-59.292z" transform="matrix(.81915 .57358 -.43018 .61436 1303.57 843.462)" style="display:block"/><g style="display:block"><path fill="#FFC700" d="M1289.189 784.783c28.033-3.338 60.076 16.103 71.57 43.422 11.493 27.32-1.915 52.173-29.948 55.511-28.033 3.339-60.076-16.102-71.57-43.422-11.493-27.32 1.915-52.173 29.948-55.511z"/><path fill="#FFE700" d="M1347.981 819.638a53.725 53.725 0 0 1 4.773 8.863c2.47 5.869 3.577 11.603 3.463 16.936-.023 1.113-1.016 1.12-2.325 1.28-13.243 1.624-65.508 7.844-72.623 8.654-.973.11-2.685.36-4.357-1.32-4.378-4.402-7.424-9.79-9.765-15.355-1.362-3.236-2.308-6.43-2.865-9.538-.115-.64-.423-1.669 2.524-2.02 12.733-1.516 59.52-6.969 77.29-9.085 2.347-.28 3.261.645 3.885 1.585zm-55.58-27.754c15.475-1.843 32.399 4.545 44.963 15.641.892.788 2.96 3.183-.904 3.724-3.864.542-61.677 7.135-68.56 7.954-4.032.48-3.8-2.13-3.645-2.939 2.463-12.903 12.658-22.536 28.146-24.38z"/></g></g></g><path stroke="#9DEEC7" stroke-width="13" d="M396.003 355.089c-84.82 7.601-163.41 13.29-252.041 16.588-15.917.592-33.228-11.412-36.908-42.619-14.53-123.235-31.678-302.891-47.058-481.524-2.828-32.845 23.041-69.646 70.892-70.091 112.027-1.042 349.193-14.511 455.264-10.36" fill="none" transform="rotate(-145 914.887 215.665) scale(.5)" style="display:block"/></g><g clip-path="url(#aQ)" style="display:block" transform="matrix(-1 0 0 1 1976 -43.5)"><g style="display:block"><path stroke-linecap="round" stroke-miterlimit="10" stroke="#CC348D" stroke-width="23" d="M1745.026 391.95c-2.964-14.87 27.958-18.787 47.568-3.58" fill="none"/><path fill="#C6775C" d="M1759.896 388.986c1.637 8.212-3.695 16.196-11.907 17.833-8.213 1.636-16.196-3.694-17.833-11.907-1.637-8.212 3.694-16.197 11.906-17.833 8.213-1.637 16.198 3.694 17.834 11.907z"/><path fill="#5EC6FF" d="M1783.11 417.788c-1.958 9.698-16.64 14.915-32.791 11.653-16.152-3.262-27.657-13.77-25.699-23.467 1.959-9.698 15.554-27.646 35.22-23.674 19.81 4 25.23 25.79 23.27 35.488z"/><path fill="#0084C2" d="M1783.11 417.788c-1.958 9.698-16.64 14.915-32.791 11.653-16.152-3.262-27.657-13.77-25.699-23.467 1.959-9.698 16.64-14.915 32.792-11.653 16.152 3.262 27.657 13.77 25.699 23.467z"/><path fill="#FFCC76" d="M1757.412 394.321c-9.162-1.85-17.849-.97-24.01 1.907.137 5.882-.318 12.99-.223 14.944.003.122-.076.24-.078.364-.073 6.705 3.344 12.463 9.766 13.492 4.652.746 9.093-1.352 11.585-5.001a13.14 13.14 0 0 0 6.82 3.296c7.206 1.155 13.983-3.75 15.138-10.955.56-3.502.894-5.335 1.958-7.433-4.606-4.835-12.075-8.82-20.956-10.614z"/></g><g mask="url(#aR)" style="display:block"><path stroke-linecap="round" stroke-miterlimit="10" stroke="#FFCC76" stroke-width="4.148" d="M1797.43 313.978c-14.907 6.18-35.2 29.14-26.058 33.858 9.141 4.72 18.91-25.43 43.048-18.899m-18.942 8.772c-11.508 6.187-19.6 20.282-31.057 40.659m33.02-34.812c-5.101 5.108-7.762 7.696-13.886 17.27-6.123 9.574-13.843 18.851-17.313 31.151" fill="none"/></g><path fill="#0084C2" d="M732.862-124.382c4.759-25.473 29.266-42.264 54.739-37.505s42.265 29.265 37.506 54.738-29.266 42.265-54.739 37.506-42.265-29.266-37.506-54.739z" transform="rotate(5.635 -4654.64 10604.073)" style="display:block"/><g mask="url(#aS)" style="display:block"><path fill="#006AAD" d="M1847.81 507.419c-17.144-1.795-34.124-4.668-49.052-21.438l-6.977.317c17.87 21.426 38.47 24.823 49.96 25.452a47.202 47.202 0 0 0 6.07-4.331z"/><path fill="#C6775C" d="M1788.445 414.573c4.745-15.93 21.46-25.041 37.419-20.4 16.032 4.664 25.25 21.442 20.587 37.475l-10.176 34.987c-1.159 3.98-4.09 7.21-7.956 8.706-15.927 6.159-28.396 10.38-33.102 11.935a3.209 3.209 0 0 1-3.46-.947c-7.982-9.321-12.644-19.921-14.714-25.41-.912-2.418-.897-5.057-.16-7.535l11.562-38.811z"/><path stroke-linecap="round" stroke="#FFF" stroke-width="20.813" d="m1786.709 456.385 2.76-8.369m19.93 15.508 1.778-6.116" fill="none"/><path stroke-linecap="round" stroke="#3D3D3D" stroke-width="9.4" d="M1807.795 460.86s-1.156 2.474-1.405 4.994m-18.423-12.59s-.577 3.271-2.006 5.506" fill="none"/><path fill="#FFF" d="M1782.435 456.57c1.699.908 2.493 3.539 1.46 5.194-4.28 7.182-8.984-7.978-1.46-5.193zm19.301 8.046c2.031.626 3.328 2.636 2.466 4.798-2.748 4.625-6.247-4.275-2.466-4.798z"/><path fill="#C6775C" d="M1790.23 445.5a6.295 6.295 0 1 1 12.031 3.699 6.295 6.295 0 0 1-12.03-3.7z"/></g><path stroke-linecap="round" stroke="#3D3D3D" stroke-width="46.998" d="M806.508-160.321c-17.756 5.031-37.78.251-40.643-7.859" fill="none" transform="matrix(1 0 0 1 1028.436 585.596)" style="display:block"/><path fill="#FFF" d="m756.151-159.828.792-1.802a5.805 5.805 0 0 1 10.63 4.672l-.792 1.802a5.805 5.805 0 0 1-10.63-4.672z" transform="matrix(1 0 0 1 1028.561 585.721)" style="display:block"/><path fill="#CC348D" d="M745.232-224.137c-.304-28.44 22.505-51.741 50.945-52.045 28.44-.304 51.741 22.506 52.045 50.946.304 28.44-22.505 51.74-50.945 52.044-28.44.304-51.741-22.505-52.045-50.945z" transform="rotate(-5.635 7288.783 -10333.741)" style="display:block"/><path stroke-linecap="round" stroke-linejoin="round" stroke="#CC348D" stroke-width="23" d="M831.666-200.93s8.444 3.584 7.33 8.615c-2.688 12.125-23.934 15.5-23.934 15.5" fill="none" transform="rotate(-5.635 7288.783 -10333.741)" style="display:block"/><g mask="url(#aT)" style="display:block"><path fill="#0084C2" d="M1754.76 360.891c1.131-24.922 15.71-54.48 57.3-58.903 41.588-4.423 81.311 15.413 75.38 41.02-4.62 19.943-24.377 31.032-70.955 31.72-44.43.656-61.843-11.207-61.724-13.837z"/><path stroke="#00448E" stroke-width="11" d="M1754.76 360.891c1.131-24.922 15.71-54.48 57.3-58.903 41.588-4.423 81.311 15.413 75.38 41.02-4.62 19.943-24.377 31.032-70.955 31.72-44.43.656-61.843-11.207-61.724-13.837z" fill="none"/></g><g style="display:block"><path stroke-linecap="round" stroke-linejoin="round" stroke="#0084C2" stroke-width="20" d="M1812.734 325.795s-35.596-8.09-46.931-15.46c1.033-12.147 17.658-30.022 25.667-41.244" fill="none"/><path stroke-linecap="round" stroke-linejoin="round" stroke="#CC348D" stroke-width="14" d="M1811.79 259.294c-2.837-5.292-8.128-11.064-12.345-13.468" fill="none"/></g><g style="display:block"><path stroke-linecap="round" stroke-linejoin="round" stroke="#0084C2" stroke-width="20" d="M1812.964 325.696s-55.122 10.54-94.142-25.186" fill="none"/><path stroke-linecap="round" stroke-linejoin="round" stroke="#CC348D" stroke-width="14" d="M1705.92 280.032c-2.88 1.896-10.101 7.56-14.46 12.381" fill="none"/></g><g style="display:block"><path stroke-linecap="round" stroke-linejoin="round" stroke="#DAAF83" stroke-width="5" d="m1874.666 418.575-59.554 6.132m57.597 2.901-56.848 2.906" fill="none"/><path stroke-linecap="round" stroke-linejoin="round" stroke="#C6775C" stroke-width="9" d="m1842.74 422.967-8.328 8.362" fill="none"/><path fill="#C6775C" d="m1845.172 426.98 4.146-4.272a8.535 8.535 0 0 0-.179-12.07l-3.779-3.666a8.534 8.534 0 0 0-12.068.179l-4.146 4.271a8.534 8.534 0 0 0 .18 12.069l3.777 3.667a8.536 8.536 0 0 0 12.07-.179z"/></g></g><g clip-path="url(#bc)" style="display:block" transform="matrix(-1 0 0 1 1916 -23.5)"><g style="display:block"><path stroke-linecap="round" stroke-linejoin="round" stroke="#FFC6B7" stroke-width="12" d="M1462.244 601.505c-1.908-3.263-10.654-5.949-16.735-6.851m-6.449 8.073c7.061.771 16.208 1.654 21.007 4.154m-19.904 9.893c10.183-3.824 17.172-3.175 21.893-1.733m-3.3 15.158s3.91-8.842 10.667-15.54" fill="none"/><path stroke-linecap="round" stroke-linejoin="round" stroke="#FFC6B7" stroke-width="36" d="M1489.913 598.743c-10.06 2.473-14.74 3.82-23.147 7.123" fill="none"/><path stroke-linecap="round" stroke-linejoin="round" stroke="#33E3FF" stroke-width="36" d="M1507.695 595.017c-8.931.935-19.939 4.064-28.558 6.76" fill="none"/></g><path fill="#33E3FF" d="M631.39-114.828c9.898-28.341-29.38-59.887-59.966-45.856-23.35 8.816-42.655 23.372-42.655 23.372-12.843 8.596 82.865 97.039 88.58 71.608 0 0 5.795-29.548 14.04-49.124z" transform="rotate(-4.185 8925.974 -13112.606)" style="display:block"/><path stroke-linecap="round" stroke="#393939" stroke-width="27" d="m683.25 34.5 4.25 3.5" fill="none" transform="rotate(-22.139 2518.009 -2183.406)" style="display:block"/><path stroke-linecap="round" stroke-linejoin="round" stroke="#393939" stroke-width="23" d="m613.75 94-8.25 3.75" fill="none" transform="rotate(-25.192 2312.248 -1834.767)" style="display:block"/><path fill="#FFC7B8" d="M552.811-154.957c-14.873-8.982-34.962-11.237-52.179-1.891l-28.256 15.339a51.11 51.11 0 0 0-25.616 34.316l-7.98 37.63C434.57-49.714 440-30 458.986-17.428 477.972-4.856 510.5 12 528.501 43.852c6.897 12.204 42.974 11.603 54.934 7.15l38.691-9.376A38.335 38.335 0 0 0 651.93 8.839l6.319-51.72c-.568-6.318-6.973-19.296-11.519-26.102C621-107.5 590-132.5 552.811-154.957z" transform="rotate(-7.776 5285.861 -6961.679)" style="display:block"/><path fill="#EE9583" d="M523.147-6.062c2.236 3.145 5.699 3.51 8.324 1.644 2.625-1.866 3.418-5.255 1.182-8.401-2.236-3.145-9.483-4.798-10.202-4.287-.718.51-1.54 7.899.696 11.044z" transform="rotate(-7.776 5282.43 -6960.404)" style="display:block"/><g style="display:block"><path fill="#FFF" d="M1486.28 553.647c-8.021-4.427-20.14-2.572-25.735 3.939-4.622 5.378-3.127 12.115 3.499 15.771l9.93 5.48c8.021 4.427 20.14 2.571 25.735-3.94 4.622-5.377 3.128-12.115-3.498-15.771l-9.93-5.48zm29.859-24.247c-7.99-4.41-19.136-2.022-24.67 5.284-5.34 7.052-3.45 16.07 4.263 20.327l9.084 5.012c7.99 4.41 19.137 2.02 24.67-5.285 5.34-7.052 3.449-16.07-4.264-20.326l-9.083-5.012z"/><path fill="#FFC7B8" d="M1531.561 538.297c-5.171 4.622-10.795 17.736-12.01 27.092l16.161-14.446c.771-6.14 1.02-17.268-4.15-12.646z"/><path fill="#EE9583" d="M1528.282 557.224a2.223 2.223 0 0 0-1.713 2.634c.47 2.215.537 4.4-.03 6.497-.56 2.074-1.78 4.204-4.108 6.274a2.219 2.219 0 0 0-.183 3.134 2.22 2.22 0 0 0 3.135.184c2.92-2.598 4.638-5.457 5.444-8.433.798-2.952.659-5.878.088-8.577a2.221 2.221 0 0 0-2.633-1.713z"/><path fill="#4B4B4B" d="M1502.388 542.555a4.246 4.246 0 0 0 2.168 3.134c2.04 1.126 4.585.423 5.684-1.567a4.07 4.07 0 0 0 .278-.622l5.014 2.629c3.593 1.883 4.516 6.024 2.065 9.26-2.462 3.25-7.397 4.356-11.007 2.463l-6.098-3.197c-3.593-1.883-4.517-6.024-2.067-9.26.998-1.318 2.404-2.283 3.963-2.84zm-15.023 16.188c.172.08.34.166.506.258l5.26 2.9c3.88 2.141 4.796 6.075 2.153 9.25-2.3 2.763-7.41 3.574-10.79 1.711l-7.554-4.17c-3.222-1.776-3.982-5.039-1.788-7.675.977-1.174 2.383-2.05 3.968-2.586a4.503 4.503 0 0 0 2.153 2.615c2.1 1.159 4.67.526 5.74-1.412a3.75 3.75 0 0 0 .352-.891z"/></g><g mask="url(#bd)" style="display:block"><g clip-path="url(#be)" transform="rotate(-1.714 1622.605 511.655) scale(1.00759)"><g style="display:block"><path fill="#FFC7B8" d="M1531.072 472.95c5.547 1.538 10.722-2.436 11.558-8.872.835-6.437-2.985-12.9-8.532-14.438-5.547-1.538-10.722 2.436-11.557 8.872-.836 6.437 2.985 12.9 8.531 14.438z"/><path fill="#0084C2" d="M1476.51 610.578s56.633 59.035 75.738 52.288l84.852-53.299c15.31-5.119 16.846-112.947 8.034-122.726l-46.156-33.193-.192-.139-6.05-4.349-7.1 111.687-109.126 49.731z"/><path fill="#33E3FF" d="M1599.227 458.011c-6.193-5.901-32.26-23.432-32.26-23.432a89.37 89.37 0 0 1 2.122 5.235c15.96 43.123 4.178 106.142 2.463 109.162-15.069 26.531-97.039 53.239-102.455 51.97l17.197 15.416c27.382 2.193 90.182-24.41 102.765-40.754 10.975-14.252 13.347-94.227 10.168-117.597z"/></g><path fill="url(#bf)" d="M542.287-73.808a20.443 20.443 0 0 0-21.744-1.686l-66.346 34.981c-4.69 2.473-5.503 8.833-1.52 12.333 4.619 4.057 18.803 15.086 20.93 16.441 2.539 1.618 3.641 4.492 3.329 7.164L455.999 7.558C439.513-4.27 412.084-46.23 416.293-66.078c0 0 3.246-69.461 16.083-76.429 0 0 91.517-46.369 107.436-34.95l29.674 16.915 1.147.654-.456 92.437a8.424 8.424 0 0 1-7.201 8.168c-.631.092-20.689-14.525-20.689-14.525z" transform="rotate(-6.1 6395.181 -8836.617)" style="display:block"/></g></g><path fill="#FF9500" d="M470.937-93.332c12.917-.062 20.36-10.893 20.3-24.209-.059-13.316-7.599-24.074-20.516-24.012-12.917.061-21.552 10.897-21.492 24.214.06 13.316 8.791 24.069 21.708 24.007zm-3.115 36.24c14.552-1.206 25.292-14.726 23.989-30.195-1.304-15.47-14.157-27.032-28.71-25.823-14.551 1.208-25.292 14.726-23.988 30.195 1.303 15.47 14.157 27.031 28.709 25.824z" transform="rotate(16.734 -1069.4 3512.114)" style="display:block"/><path fill="#33E3FF" d="M637.81-65.136C633.75-56 626.831-54.6 622.786-55.983c-5.465-1.15-9.63-7.729-9.02-16.257 1.234-17.26 7.984-33.01 13.266-43.535 4.773-9.512 15.718-11.975 22.54-8.794 6.779 3.161 12.82 11.1 7.698 20.625-6.02 11.194-15.4 29.672-19.46 38.808z" transform="rotate(-4.185 9006.524 -13143.765)" style="display:block"/><g style="display:block"><path fill="#FFC6B7" d="M1632.88 454.58c-5.855-7.821-16.131-10.414-25.162-4.08-7.96 5.581-10.55 15.834-4.187 24.031 5.807 7.479 16.128 9.957 25.057 3.831 9.075-6.218 10.147-15.96 4.292-23.782z"/><path stroke-linecap="round" stroke="#EE9583" stroke-width="3.796" d="M1616.699 460.297c3.35 1.53 6.573 5.259 6.462 7.799" fill="none"/><path stroke-linecap="round" stroke-linejoin="round" stroke="#FFC6B7" stroke-width="12" d="M1609.619 454.734c-.177-4.17-1.737-8.165-.552-12.05m19.893-4.028c-6.038 1.066-11.916 8.56-11.595 12.115m22.586-5.088c-4.066 1.428-14.399 5.777-14.146 11.734m17.468 1.294c-4.39-1.434-10.538 1.933-12.233 6.744" fill="none"/></g></g><g clip-path="url(#bn)" style="display:block" transform="matrix(-1 0 0 1 1976 -43.5)"><path fill="#58CC02" d="M303.202-41.464c15.252 94.999-16.572 140.035-80.655 155.537-84.448 20.428-144.155-35.09-168.05-85.71C36.399-9.976 30.47-45.752 30.521-89.645c.047-43.971 12.11-87.954 50.66-103.136 17.554-6.913 35.648-7.429 49-1.417 20.694 9.319 29.243 14.256 36.941 18.333 4.22 2.235 127.256 79.438 136.08 134.401zm15-4c15.252 94.999-31.572 144.035-95.655 159.537-84.448 20.428-134.794-43.146-151.05-96.71C16-165.5 159.424-179.943 167.122-175.865a21.64 21.64 0 0 0 13.778 2.223c13.916-2.39 30.646-12.124 54.559-20.483 30.669-10.721 69.932 6.13 71.908 45.377 0 0 2.011 48.321 10.835 103.284z" transform="rotate(-2.94 12644.067 -19953.284)" style="display:block"/><path fill="#58CC02" d="M194.4-10.921c41.197 33.255 100.112 36.257 145.734 6.363 45.621-29.893 66.603-85.246 52.867-136.495-2.857-10.667-15.283-15.388-24.539-9.323L195.78-37.227c-9.256 6.065-9.954 19.384-1.38 26.306z" transform="rotate(19.483 -932.439 3278.496)" style="display:block"/><path fill="#58CC02" d="M198.976.515c-26.37 45.909-80.206 70.027-133.554 58.669C12.074 47.826-27.518 3.817-33.258-48.93c-1.195-10.977 8.679-19.874 19.504-17.569L188.17-23.511C198.993-21.206 204.464-9.04 198.976.515z" transform="rotate(-25.363 1955.128 -2017.061)" style="display:block"/><path stroke-linecap="round" stroke-linejoin="round" stroke="#F49000" stroke-width="35" d="M256.25 102.5 260 74.75" fill="none" transform="rotate(7.003 -4082.325 8954.02)" style="display:block"/><path stroke-linecap="round" stroke-linejoin="round" stroke="#F49000" stroke-width="35" d="m138 147-27-7.75" fill="none" transform="rotate(16.945 -1354.803 3921.762)" style="display:block"/><g mask="url(#bp)" style="display:block"><path fill="#89E219" d="M1234.772 634.404c-1.129 8.773-7.888 16.067-16.843 17.917-8.954 1.85-17.878-2.202-22.14-9.861-.887-1.594.067-3.615 1.883-3.99l34.891-4.961c1.818-.36 2.443-.93 2.209.895zm-58.518 11.904c-2.282 8.526-9.943 14.773-19.058 15.314-9.114.54-17.414-4.764-20.618-12.964-.668-1.707.545-3.57 2.394-3.678l34.5-2.045c1.848-.11 3.257 1.599 2.782 3.373zm35.723 20.4c-1.487 8.358-8.54 15.056-17.562 16.447-9.023 1.387-17.772-2.878-21.717-10.4-.82-1.564.215-3.46 2.045-3.741l33.155-6.008c1.83-.294 4.388 1.964 4.079 3.703zm23.093-68.441c-22.281 1.258-42.22-10.89-51.932-29.444-8.18.432-14.11.734-17.78.932-6.52.354-11.861.648-16.011.884-5.659 19.468-18.482 33.246-35.943 34.536-20.572 1.519-41.092-22.399-43.46-52.547-1.788-22.762-2.028-34.002-.386-46.24 1.762-13.132 6.682-22.584 14.158-29.411.452-11.9 9.732-22.26 14.127-22.375 2.473-.065 2.104.89 1.891 14.217 4.357-17.8 13.667-23.295 17.755-26.356 5.118-3.834 11.144-5.728 11.4 2.494.121 3.912 3.175 46.736 27.962 47.607 2.34.082 3.84.084 6.79-.214 15.38-1.547 44.478-34.034 55.806-47.4 7.048-8.317 11.571-6.76 13.334-4.124 4.004 5.99 5.458 12.27 4.572 18.654l9.461-11.931c1.863-2.336 5.462-2.202 7.12.277 4.314 6.448 6.107 14.084 5.37 21.566 14.8 9.116 25.046 25.082 26.108 43.747l1.534 27.069c1.72 30.345-21.504 56.345-51.876 58.059z"/></g><g style="display:block"><path fill="#F49000" d="M1190.034 567.429c-.601-10.605-9.684-18.714-20.289-18.113-10.008.567-17.9 8.724-18.138 18.745l-.116 25.999c-.283 11.935 9.678 21.574 21.598 20.898 11.275-.638 19.896-10.296 19.258-21.57l-2.313-25.96z"/><path fill="#B16900" d="M1183.22 569.411c.229-8.205-6.61-14.848-14.804-14.384-7.273.412-13.017 6.325-13.22 13.606l-.206 24.882c-.227 8.205 6.611 14.847 14.806 14.383 7.272-.412 13.017-6.324 13.219-13.606l.206-24.88z"/><path fill="#FFB8D1" d="M1183.49 577.337c-.168.006-.337.013-.505.023-12.633.716-22.294 11.536-21.578 24.17.09 1.582.339 3.12.73 4.595a13.93 13.93 0 0 0 7.664 1.773c7.272-.412 13.017-6.324 13.219-13.606l.47-16.955z"/><path fill="#FFC200" d="M1138.633 571.015c-.134.741.303 1.458 1.01 1.717l10.212.508 41.262-3.743c.924-.156 1.523-1.068 1.239-1.961-3.747-11.775-15.09-20.59-27.996-19.859-13.063.74-23.501 11.004-25.727 23.338z"/><path fill="#FFDE00" d="M1168.156 559.209c2.096.81 4.393-.307 5.157-2.391.764-2.085-.26-4.539-2.391-5.158-4.161-1.208-9.286-1.15-13.387.666-2.03.899-2.997 3.226-2.13 5.27.867 2.042 3.212 2.963 5.27 2.13 1.765-.715 5.384-1.327 7.48-.517z"/></g><g style="display:block"><path fill="#FFF" d="M1268.432 538.153c1.197 21.126-14.96 39.221-36.086 40.418-21.126 1.197-39.222-14.958-40.418-36.085l-1.22-21.517c-1.197-21.126 14.96-39.221 36.086-40.418 21.126-1.197 39.222 14.958 40.418 36.084l1.22 21.518zm-129.515 7.336c1.196 21.126-10.966 38.996-27.167 39.914-16.197.917-30.302-15.464-31.499-36.59l-1.219-21.518c-1.197-21.126 10.967-38.995 27.165-39.913 16.201-.917 30.303 15.464 31.5 36.59l1.22 21.517z"/><path fill="#4B4B4B" d="M1104.184 541.962c.75 9.891 7.703 17.428 15.514 16.845 7.82-.592 13.559-9.097 12.808-18.987l-1.452-19.102c-12.506 6.468-20.31-10.39-11.824-16.661-.66-.27-2.57-.393-3.69-.174-9.631 1.921-13.58 11.527-12.462 23.358.881 9.481 1.106 14.721 1.106 14.721zm95.055-4.909c.32 9.91 8.613 17.689 18.523 17.378 9.91-.32 17.688-8.613 17.378-18.523l-.612-19.15c-13.515 5.346-19.12-9.58-14.953-17.135a17.571 17.571 0 0 0-3.57-.244 17.86 17.86 0 0 0-5.451 1.025c-9.824 4.07-11.975 15.059-11.791 21.889.193 6.83.476 14.76.476 14.76z"/><path fill="#8EDF00" d="M1106.428 480.033c-25.983 1.856-30.24 15.333-31.274 23.435-2.181 17.072 2.276-.988 2.276-.988 16.776-25.597 47.845-24.488 65.11 12.285 4.268-20.387-.371 1.172-2.578-13.466s-15.02-22.589-33.534-21.266zm-19.926 107.646c6.095 2.952 8.341 7.205 22.91 10.066 14.568 2.862 10.926 2.913 13.176 3.268-3.748-2.106-29.74-10.131-36.086-13.334zm140.767-111.67c-30.95-.333-41.177 20.445-40.657 37.674.52 17.23.37 1.254.37 1.254 7.735-48.958 60.234-48.408 81.328-17.294-.116-8.048 2.744 21.613 1.156 6.826-1.588-14.788-20.144-28.224-42.197-28.46zm-5.038 115.122c-12.632-1.888-16.631-2.641 7.295 1.861 19.266 3.626 31.824-5.2 40.903-16.341-5.574 6.395-25.833 15.876-48.198 14.48z"/></g></g><g clip-path="url(#bC)" style="display:block" transform="matrix(-1 0 0 1 1976 -43.5)"><path fill="#FFCBA3" d="M214.965-328.652c6.209 0 11.242 5.087 11.242 11.363s-5.033 11.364-11.242 11.364c-6.21 0-11.243-5.088-11.243-11.364 0-6.276 5.034-11.363 11.243-11.363z" transform="rotate(.371 -73749.247 155922.589)" style="display:block"/><path fill="#FFB100" d="M228.326-320.869c-7.016-4.09-12.212-1.444-14.856 2.414-2.644 3.859-2.953 10.703 3.581 14.84 6.534 4.138 20.634 16.328 29.866 26.01 3.542 3.714 11.115 4.936 16.219-.514 5.103-5.45 2.465-12.756-.781-16.633-6.565-7.837-27.012-22.027-34.029-26.117z" transform="rotate(.371 -73749.497 155999.855)" style="display:block"/><path fill="#3D3D3D" d="M174.368-315.056c0 9.562-7.752 17.314-17.314 17.314-9.562 0-17.314-7.752-17.314-17.314 0-9.562 7.752-17.315 17.314-17.315 9.562 0 17.314 7.753 17.314 17.315zm-20.231-9.747c-13.511-11.937-14.787-32.568-2.85-46.08l22.652-26.693c11.937-13.512 32.567-14.788 46.079-2.85 14.326 12.657 14.76 34.86.939 48.067l-.997.596a94.767 94.767 0 0 0-10.584 11.98l-7.422 9.988c-11.403 15.344-33.491 17.65-47.817 4.992z" transform="rotate(.371 -90684.112 160194.59)" style="display:block"/><path fill="#E89665" d="M170.119-403.653c2.087.944 3.005 3.418 2.051 5.527-.954 2.109-6.986 5.386-6.986 5.386s-1.522-6.695-.568-8.804c.954-2.108 3.417-3.052 5.503-2.109z" transform="rotate(-.427 79779.326 -139118.881)" style="display:block"/><path fill="#FFCBA3" d="M219.585-404.105c-21.544-12.439-49.093-5.057-61.532 16.488-12.439 21.545-5.057 49.093 16.487 61.532l29.192 16.854 45.045-78.02-29.192-16.854z" transform="rotate(.371 -90636.078 160016.042)" style="display:block"/><g style="display:block"><path fill="#FFB100" d="M1224.522 206.47c-20.318 27.335-21.509 91.1 47.294 114.493l35.578-57.267 33.995-61.706c-52.671-29.416-91.075-30.217-116.867 4.48z"/><path fill="#FFF" d="M1261.371 201.363c2.083 2.081 1.829 5.712-.568 8.11-2.397 2.397-6.026 2.652-8.109.57-2.082-2.08-1.828-5.71.569-8.108 2.396-2.398 6.026-2.654 8.108-.572zm-32.458-8.217c24.78 13.43 46.615-8.254 37.37-12.732-3.965.217-9.548 2.15-14.3 3.691-9.709-1.08-18.03 3.81-23.07 9.04zm-15.384 30.704c18.733 9.561 43.29-20.98 23.096-32.55-5.05 3.03-18.627 15.068-23.096 32.55z"/><path fill="#FF9500" d="M1291.948 253.788c-19.276 32.894-29.94 61.477-20.559 66.974 9.382 5.498 30.327-17.638 49.603-50.532 19.276-32.894 29.584-63.09 20.203-68.587-9.382-5.498-29.97 19.251-49.247 52.145zm-39.916-69.687c16.828 1.01 40.12 9.434 56.296 17.748a7.99 7.99 0 0 0 8.16-.525c2.886-1.966 5.775-5.458 10.212-7.07-30.467-14.678-54.956-18.143-74.668-10.153zm-34.985 36.332c-10.187 26.985-5.715 67.953 34.335 91.325-3.963-14.788 10.719-43.768 16.492-57.54 1.603-3.823.034-8.238-3.633-10.173-9.955-5.256-32.006-17.733-47.194-23.612z"/></g><path fill="#FFCBA3" d="M208.585-408.855c-7.835-3.645-36.835-2.645-50.532 21.238-12.377 21.58-5.057 49.093 16.487 61.532 0 0 2.21 1.585 4.192 2.604C165-376.5 201.25-403.25 213.777-407.001c-1.277-.999-5.192-1.854-5.192-1.854z" transform="rotate(.371 -90683.862 160117.324)" style="display:block"/><g style="display:block"><path fill="#9F9F9F" d="M1190.39 210.894c-5.798 16.749-1.55 36.195 11.586 48.228 4.122-18.104 1.893-38.648-11.586-48.228z"/><path fill="#B23232" d="m1219.891 199.91 1.249 3.309c1.176 3.118-.485 6.537-3.71 7.636-3.227 1.1-6.796-.538-7.972-3.656l-1.249-3.31c-1.176-3.118.485-6.536 3.71-7.636 3.227-1.099 6.795.538 7.972 3.657z"/></g><g mask="url(#bD)" style="display:block"><path fill="#F14C4C" d="M1214.217 205.687a6.494 6.494 0 0 1 5.41 3.757 5.993 5.993 0 0 1-10.537-1.117l-.201-.5a6.487 6.487 0 0 1 5.328-2.14z"/></g><g mask="url(#bE)" style="display:block"><path fill="#FFF" d="M1196.641 181.379c2.616-4.648 5.82-7.806 7.156-7.054l1.798 1.038c1.274.717.066 5.203-2.454 9.68-2.52 4.477-5.727 7.839-7.001 7.122l-1.816-1.008c-1.336-.752-.299-5.13 2.317-9.778zm-11.837 21.17c2.615-4.648 5.819-7.806 7.155-7.054.05.027 1.75 1.01 1.8 1.037 1.273.717.065 5.203-2.455 9.68-2.52 4.478-5.727 7.838-7.001 7.121l-1.816-1.008c-1.336-.752-.3-5.13 2.317-9.777z"/><path fill="#4B4B4B" d="M1186.577 200.543c1.253-2.226 2.788-3.74 3.428-3.38.024.014 1.242.624 1.265.637.61.343.03 2.493-1.176 4.637-1.207 2.145-2.744 3.755-3.354 3.411-.023-.013-1.25-.608-1.273-.621 1.984-2.443 2.605-5.029 1.11-4.684zm9.233-16.574c1.253-2.227 2.788-3.74 3.428-3.38.024.014 1.242.624 1.265.637.61.343.031 2.493-1.176 4.637-1.207 2.145-2.744 3.755-3.354 3.412-.023-.013-1.25-.608-1.273-.622 1.984-2.442 2.605-5.03 1.11-4.684z"/><path stroke-linecap="round" stroke-linejoin="round" stroke="#E89665" stroke-width="3" d="m-50.353 5.574 8.892 4.251-8.985 3.287m74.943-6.57L17.39 8.811l8.055 3.69" fill="none" transform="matrix(.42649 -.7578 .21787 .12261 1198.49 183.515)"/></g><path fill="#FFCBA3" d="M194.962-319.295c7.125 0 12.9 5.838 12.9 13.039s-5.775 13.04-12.9 13.04c-7.124 0-12.9-5.839-12.9-13.04 0-7.201 5.776-13.04 12.9-13.04z" transform="rotate(.371 -82842.644 148552.97)" style="display:block"/><path fill="#FFB100" d="M207.609-317.212c-9.329-.565-12.049 5.307-12.567 10.651-.519 5.344 1.068 12.055 9.925 12.919 8.857.863 33.755 5.15 46.459 7.876 5.098 1.065 12.306-1.613 13.851-9.075 1.546-7.46-4.638-12.42-9.527-14.069-9.885-3.333-38.813-7.736-48.141-8.302z" transform="rotate(.371 -82920.41 148707.241)" style="display:block"/><path stroke-linecap="round" stroke-linejoin="round" stroke="#FF9500" stroke-width="12" d="M370.75-299.25s6.961 2.174 12 6.25" fill="none" transform="rotate(4.996 -5384.058 10994.381)" style="display:block"/><path stroke-linecap="round" stroke-linejoin="round" stroke="#FF9500" stroke-width="12" d="M349-258.75s5.468 6.357 8 12.25" fill="none" transform="rotate(-8.418 4503.154 -6530.96)" style="display:block"/><g style="display:block"><path stroke-linecap="round" stroke-linejoin="round" stroke="#00BDFF" stroke-width="7" d="m1168.207 161.235 6.47-3.432m-.364 13.532 5.603-3.267m-6.206 9.886c11.131 7.327 18.423-2.776 20.956-.806" fill="none"/><path fill="#00BDFF" d="M1121.635 192.207c-2.073.538-3.87-1.523-3.056-3.503l2.258-5.497 6.55 7.51-5.752 1.49zm-4.661-8.758c-1.807-1.15-1.527-3.87.477-4.624l5.559-2.097-1.024 9.91-5.012-3.189zm25.082 13.215c-9.7 2.617-19.687-3.125-22.305-12.826-2.618-9.702 3.126-19.687 12.827-22.305 0 0 11.478-3.006 19.578-7.01 8.1-4.002 19.826-2.077 24.865 6.616 5.039 8.693 1.702 19.61-6.616 24.865-8.319 5.255-28.349 10.66-28.349 10.66z"/><path fill="#FFF" d="M1140.938 188.531a6.173 6.173 0 0 1-7.919-3.675l-2.53-6.917a6.173 6.173 0 0 1 11.594-4.242l2.53 6.916a6.173 6.173 0 0 1-3.675 7.918z"/><path fill="#FFA3A3" d="M1135.206 179.038c.572.245.819.922.54 1.478l-.76 1.525c-.425.85-1.66.78-1.986-.112l-.804-2.197c-.326-.892.572-1.743 1.444-1.367l1.566.673z"/><path fill="#00729A" d="M1131.243 184.552a2.274 2.274 0 1 0-4.48-.784 2.274 2.274 0 0 0 4.48.784zm-1.324-3.75a2.273 2.273 0 1 0-4.48-.781 2.273 2.273 0 1 0 4.48.781z"/></g></g><g clip-path="url(#bJ)" style="display:block" transform="matrix(-1 0 0 1 1916 -23.5)"><g style="display:block"><path fill="#4CC5FF" d="M1600.934 777.742c4.328-4.32 11.34-4.313 15.659.017l16.368 16.403c4.32 4.33 4.313 11.34-.016 15.66l-4.176 4.166c-8.632 8.368-15.013 3.73-25.696-4.377-9.893-8.56-15.57-17.77-7.702-26.165l5.563-5.704z"/><path fill="#1CB0F6" d="M1611.723 796.131c-7.285-6.937-8.482-14.244-4.683-18.285 5.945-6.323 19.968-19.983 29.392-26.825 6.276-4.556 27.59-12.9 49.9-17.45 9.858-2.008 19.476 4.35 21.487 14.207 2.01 9.856-4.35 19.476-14.206 21.486-12.105 2.473-32.232 9.758-36.154 11.549-3.07 2.724-16.561 14.179-23.934 22.043-4.757 5.075-15.223-.46-21.802-6.725z"/><path stroke-linecap="round" stroke="#FF4B4B" stroke-width="12.767" d="M1578.343 808.525c7.156 7.475 19.604 6.52 19.604 6.52" fill="none"/></g><g style="display:block"><path fill="#A46648" d="m1662.706 671.3 23.056 37.538c3.85 5.455 11.393 6.757 16.848 2.907 5.455-3.848 6.757-11.39 2.907-16.846l-29.45-31.139a7.67 7.67 0 1 0-13.36 7.54z"/><path stroke-linecap="round" stroke-linejoin="round" stroke="#A46648" stroke-width="6.871" d="m1654.99 662.428 8.46 3.311m-2.44-13.937 1.892 8.514m4.11-9.332.042 10.208m6.203-6.103-1.874 6.059" fill="none"/></g><g style="display:block"><path fill="#3D3D3D" d="m1722.67 645.24 25.294-19.463c9.238-7.098 22.48-5.363 29.578 3.875l6.885 8.96c7.097 9.24 5.362 22.482-3.876 29.58l-8.014 6.156c-9.238 7.098-22.48 5.362-29.579-3.876l-20.288-25.233zm9.359-5.735-13.597 45.477-27.407-8.821c-9.996-3.48-15.28-14.406-11.8-24.403l3.376-9.696c3.48-9.996 14.405-15.278 24.401-11.798l25.027 9.24zm25.77 19.529c1.405 10.491-50.288 17.414-51.694 6.923l-4.512-33.688c-1.405-10.492 5.96-20.136 16.453-21.541l13.7-1.835c10.492-1.405 20.136 5.96 21.541 16.452l4.512 33.689z"/><path fill="#A46648" d="m1737.663 713.741-37.377-11.592c-8.357-2.592-13.514-10.96-12.074-19.59l4.027-24.126a14.638 14.638 0 0 1 10.418-11.369l27.549-7.751a19.867 19.867 0 0 1 18.473 4.183l11.66 13.152a26.795 26.795 0 0 1 5.48 25.91l-6.262 19.648c-2.859 9.233-12.662 14.398-21.894 11.535z"/><path fill="#FDB02A" d="m1764.695 686.082 1.124-3.523c2.867-9 .785-18.844-5.48-25.911l-11.66-13.152a19.867 19.867 0 0 0-18.473-4.183l-14.304 4.025c11.492 2.52 33.624 10.812 48.793 42.744zm-48.793-42.744-13.245 3.726a14.638 14.638 0 0 0-10.418 11.369l-1.386 8.306c7.944-11.996 25.05-23.401 25.05-23.401zm.681-1.452c.245.69-.227 1.37-.95 1.474-6.5.94-14.02-2.543-15.7-10.13-.157-.715.222-1.428.952-1.475 9.668-.63 13.858 4.964 15.698 10.13zm-.573 1.393a1.102 1.102 0 0 1-1.474-.951c-.357-4.179.066-12.246 10.131-15.699a1.106 1.106 0 0 1 1.475.951c.642 7.647-2.835 13.095-10.132 15.7z"/><path fill="#A46648" d="M1763.207 676.248a8.151 8.151 0 0 1-10.44 4.894 8.151 8.151 0 0 1-4.893-10.44 8.152 8.152 0 0 1 10.44-4.893 8.152 8.152 0 0 1 4.893 10.44z"/></g><g style="display:block"><path fill="#FFF" d="M1714.243 661.55c.182-3.947 3.59-7.4 7.48-7.577 3.89-.178 6.682 2.995 6.124 6.96l-1.086 7.732c-.493 3.503-3.582 6.38-7.02 6.534-3.436.156-6.455-1.25-6.295-4.737l.797-8.911z"/><path fill="#A46648" d="M1712.604 673.844c1.566-2.66 11.445-6.346 15.639-5.65l-3.842 9.514c-6.172 1.538-11.797-3.864-11.797-3.864z"/><path stroke-linecap="round" stroke="#86401F" stroke-width="4" d="M1698.043 668.893c4.175-3.348 8.602.313 8.602.313" fill="none"/><path fill="#86401F" d="M1710.978 669.555c.1.01 2.09 3.34 1.952 4.672a2.425 2.425 0 0 1-4.824-.5c.139-1.332 2.771-4.183 2.872-4.172zm-.297 7.134-2.092.203a2.497 2.497 0 0 1-.481-4.97l2.092-.203a2.498 2.498 0 0 1 .481 4.97z"/><path fill="#A41414" d="M1726.053 679.546c-1.33 5.99-11.204 10.743-18.572 6.805-2.177-1.163-1.488-4.179.805-5.091 3.142-1.25 5.88-3.196 8.38-5.773 2.498-2.578 5.767-3.382 7.904-1.025 1.119 1.234 1.963 2.92 1.483 5.084z"/><path stroke-linecap="round" stroke="#3D3D3D" stroke-width="6.095" d="m1722.216 660.631-.23 4.97" fill="none"/><path fill="#E64340" d="M1715.717 684.217c-1.467-2.292-.04-5.826 3.187-7.891 2.117-1.355 4.481-1.741 6.272-1.2.802 1.145 1.273 2.596.926 4.387-.714 3.683-4.213 5.757-5.797 6.52-1.954.188-3.7-.428-4.588-1.816z"/><path fill="#E7E7E7" d="M1720.889 677.075a5.596 5.596 0 0 1-9.2 2.49c1.812-1.094 2.809-1.774 5.026-4.11 2.216-2.338 5.769-3.382 7.905-1.025.296.327.57.684.802 1.074-.328.357-1.437 2.316-4.533 1.57z"/></g><path fill="#FDB02A" d="m749.545 173.4-6.236 3.947c-11.545 7.307-26.828 3.871-34.135-7.675l-3.946-6.236c-7.229-11.421-3.83-26.538 7.59-33.766 14.99-9.487 34.832-5.027 44.319 9.963 7.228 11.421 3.829 26.539-7.592 33.767zm-2.502-9.683-33.434-7.517 4.609-20.499c2.076-9.233 11.242-15.035 20.475-12.959 9.232 2.076 15.034 11.242 12.958 20.475l-4.608 20.5z" transform="rotate(5 -5310.926 11651.843)" style="display:block"/><path fill="#1CB0F6" d="M740.472 155.971c10.32 11.635 9.254 29.433-2.381 39.753s-29.433 9.254-39.753-2.381-9.254-29.433 2.381-39.753 29.433-9.254 39.753 2.381z" transform="rotate(5 -5316.652 11651.593)" style="display:block"/><g style="display:block"><path stroke-linecap="round" stroke-linejoin="round" stroke="#A46648" stroke-width="13" d="m1759.976 727.325 3.622-24.972m5.404 24.097 12.928-13.946" fill="none"/><path fill="#A46648" d="m1727.977 729.203 13.302 19.741 29.3-25.773s-28.767-5.922-31.491-6.263c-3.111-.54-6.613-1.158-9.244.94a8.586 8.586 0 0 0-1.867 11.355zm52.005 7.153-.061-.412c-.866-5.674-3.713-10.551-7.673-13.943-4.388-3.759-10.14-5.694-16.075-4.868-11.292 1.57-18.313 12.4-16.506 24.246l.062.408c1.806 11.846 11.816 20.646 23.108 19.073 11.293-1.573 18.968-12.543 17.145-24.504z"/><path stroke-linecap="round" stroke="#86401F" stroke-width="4" d="m1744.554 732.549 11.64-7.927c2.953-2.01 7.042-1.395 9.135 1.374 0 0 0 0 0 0 2.093 2.769 1.396 6.643-1.556 8.652l-11.641 7.927" fill="none"/></g><g style="display:block"><path fill="#1CB0F6" d="M1696.853 769.431c-8.883 1.077-17.697-3.952-21.046-12.686-1.252-3.263-2.855-7.186-4.873-11.176-5.893 5.06-7.62 11.338-12.365 17.753-6.561 8.871-19.072 10.743-27.942 4.181-8.87-6.561-10.744-19.073-4.182-27.943.28-.377 8.479-9.4 16.37-18.13 15.605-17.263 24.787-24.344 34.678-23.447a20.711 20.711 0 0 1 13.47 6.687c11.61 12.366 18.2 27.457 22.153 37.764 3.953 10.302-1.195 21.858-11.499 25.811-1.569.601-3.17.993-4.764 1.186z"/><path stroke-linecap="round" stroke-linejoin="round" stroke="#0395DB" stroke-width="4" d="m1659.239 759.692 11.056-15.747s7.006 21.437 14.922 23.373" fill="none"/><path fill="#5EC6FF" d="M1649.988 777.666c-2.863 3.858-13.04 1.154-22.73-6.038-9.692-7.19-15.226-16.148-12.363-20.005.737-.995 9.426-12.495 11.246-14.832 2.93-3.763 13.14-.779 22.43 5.957s15.11 15.793 12.324 19.995c-2.786 4.202-10.523 14.405-10.907 14.923z"/><path stroke-linecap="round" stroke="#33B4F7" stroke-width="4.078" d="M1620.362 752.433c4.328.455 10.136 2.988 15.717 7.171 5.581 4.184 9.641 9.05 11.292 13.077" fill="none"/><path stroke-linecap="round" stroke="#FF4B4B" stroke-width="13.049" d="M1607.622 760.435c7.066 6.564 17.427 12.012 17.427 12.012" fill="none"/></g></g><g clip-path="url(#bO)" style="display:block" transform="matrix(-1 0 0 1 1916 -23.5)"><path fill="#FFB7E3" d="M467.017-248.933s-21.285-1.263-52.276-3.165c-15.682-.962-21.741 12.598-21.142 21.885.599 9.287 9.345 23.196 24.422 18.787 30.521-8.926 62.293-17.748 62.293-17.748l-13.297-19.759z" transform="rotate(12.863 -1567.204 4368.25)" style="display:block"/><g style="display:block"><path fill="#FFB7E3" d="M1393.56 305.05c-29.819-8.705-50.166-13.469-61.486-16.436-11.32-2.968-23.574 12.777-24.94 28.24-1.376 15.574 8.183 28.434 20.171 28.762 12.12.334 28.72 1.633 60.4-.184 15.612-.896 20.052-9.597 21.51-16.96 1.459-7.361-.53-19.007-15.654-23.422z"/><path fill="#FF9BDE" d="M1340.89 323.428c-4.24 12.045-14.255 19.005-22.37 15.546-8.114-3.459-11.255-16.028-7.015-28.073 4.24-12.045 14.254-19.006 22.368-15.547 8.115 3.46 11.255 16.029 7.016 28.074z"/></g><path stroke-linecap="round" stroke-linejoin="round" stroke="#FF7AD5" stroke-width="27.799" d="M332.375-229.745c4-8.5 8.792-19.3 14.015-28.446" fill="none" transform="rotate(-11.247 3554.687 -4915.729)" style="display:block"/><path stroke-linecap="round" stroke-linejoin="round" stroke="#FF86D0" stroke-width="15" d="M502.881-191.052c.376-4.651-.544-10.655-2.324-15.564" fill="none" transform="rotate(-26.073 2233.553 -2019.374)" style="display:block"/><path fill="#FFB7E3" d="M477.637-216.167c-7.613 5.833-.003.004-.006.006 0 0-18.631 14.661-50.031 23.985-8.308 2.467-15.805 6.766-15.948 15.431-.142 8.665 6.764 15.82 15.43 15.948 28.668.422 61.793-23.578 70.09-30.808 7.129-6.212 7.901-15.269 2.504-22.049-5.394-6.777-14.426-8.346-22.039-2.513z" transform="rotate(10.198 -2248.593 5534.965)" style="display:block"/><path fill="#FFB7E3" d="M457.463-227.353c-11.621 5.879-32.272 15.702-43.279 41.145-11.007 25.443 20.779 26.539 27.111 14.999 7.705-14.041 24.272-24.118 27.134-26.05 17.148-11.237 6.297-41.165-10.961-30.097" transform="rotate(6.823 -3817.471 8231.891)" style="display:block"/><path fill="#FFB3E6" d="M528.609-252.517c-1.324-2.088 4.65-9.711 4.65-9.711l14.956 10.268a12.758 12.758 0 0 0 7.223 2.241l22.195.002c4.776 0 7.827 5.094 5.572 9.305l-2.776 5.185a32.342 32.342 0 0 0-3.439 10.258c-.964 6.153-7.198 9.99-13.126 8.079l-5.291-1.706a42.078 42.078 0 0 1-26.151-24.402l-3.813-9.519z" transform="rotate(-6.152 6343.864 -9051.73)" style="display:block"/><g style="display:block"><path fill="#FFB7E3" d="M1470.243 302.918c17.228 14.68 19.292 40.548 4.61 57.777-7.11 8.343-20.314 14.52-33.282 11.068-13.896-3.7-22.54-16.31-28.191-26.524-3.374-6.097-5.573-11.48-6.563-18.238-.99-6.758.929-14.28 5.65-19.47 15.23-16.747 40.548-19.294 57.776-4.613z"/><path fill="#FF86D0" d="M1484.08 340.901a41.1 41.1 0 0 0 .54-5.642l-6.295-15.896-18.09-22.736a40.495 40.495 0 0 0-3.782-1.453l-5.927-1.466c-.023-.004-.045-.01-.068-.013-8.409 7.074-10.372 20.711-3.619 31.444 7.945 12.628 21.04 19.929 37.24 15.762z"/><path fill="#FFB3E6" d="M1459.67 331.465a.666.666 0 0 1 .98.013l2.623 2.915a.666.666 0 0 1-.014.907l-4.573 4.778a.666.666 0 0 1-.943.02l-2.806-2.689a.667.667 0 0 1-.022-.94l4.755-5.004zm-12.015-23.393c.364-.14.768.06.878.433l1.115 3.76a.666.666 0 0 1-.402.812l-6.183 2.348a.666.666 0 0 1-.86-.387l-1.378-3.635a.667.667 0 0 1 .385-.859l6.445-2.472z"/><path fill="#1CB0F6" d="M1459.084 288.817c27.47-1.012 39.383 22.554 31.522 41.729l-1.006 2.452c-3.497 8.529-23.368 11.272-35.43-7.15-14.17-19.716-5.43-36.216 4.914-37.031z"/></g><path stroke-linecap="round" stroke-linejoin="round" stroke="#1CB0F6" stroke-width="21" d="M499.514-354.99s-3.64 26.27-5.038 38.62c-1.417 12.526-3.406 36.01-3.406 36.01" fill="none" transform="rotate(3.24 -9100.236 17277.156)" style="display:block"/><path stroke-linecap="round" stroke="#1CB0F6" stroke-width="21" d="M510.424-244.449s24.899 3.8 37.353 5.94c14.89 2.558 44.63 8.147 44.63 8.147" fill="none" transform="rotate(3.24 -9100.236 17277.156)" style="display:block"/><path fill="#E18E70" d="M495.071-354.738c-6.063 6.951-16.614 7.671-23.566 1.608-6.952-6.064-7.672-16.615-1.609-23.566 6.064-6.952 16.615-7.673 23.567-1.609 6.952 6.064 7.671 16.615 1.608 23.567z" transform="rotate(3.24 -9099.034 17665.42)" style="display:block"/><path fill="#E18E70" d="M592.492-232.902c-7.193-7.197-7.191-18.862.006-26.057 7.198-7.194 18.865-7.191 26.058.006 7.194 7.198 7.191 18.864-.007 26.058-7.198 7.194-18.862 7.19-26.057-.007z" transform="rotate(3.24 -9392.659 17085.708)" style="display:block"/><path fill="#FFB3E6" d="M606.933-297.91c-9.289 35.122-45.292 56.063-80.414 46.774-35.122-9.29-56.063-45.292-46.774-80.414 9.289-35.122 45.292-56.063 80.414-46.774 35.122 9.289 56.063 45.292 46.774 80.414z" transform="rotate(10.753 -2026.705 5164.406)" style="display:block"/><g style="display:block"><path fill="#E18E70" d="M1527.73 236.75c15.255 16.55 14.134 42.556-2.503 58.089-16.638 15.534-39.068 15.901-54.323-.647-15.255-16.549-17.555-43.746-.918-59.28 16.637-15.533 42.49-14.71 57.745 1.839z"/><path fill="#A70000" d="M1472.571 289.13c-1.639 3.386.585 10.755 13.86 15.373 13.274 4.62 17.598-4.099 18.554-6.073.956-1.976 3.813-10.655-2.736-12.933-5.132-1.786-12.822 2.353-19.194.136-6.373-2.218-8.844.11-10.484 3.497z"/><path fill="#FFF" d="M1502.25 285.498c-2.427-.845-5.428-.364-8.59.143-3.523.564-7.248 1.161-10.605-.007-2.952-1.027-5.067-1.079-6.65-.502 1.34 2.099 4.222 4.477 8.627 6.382 7.957 3.381 15.851 2.356 20.683-.237.602-2.975-1.423-5.069-3.465-5.779z"/><path fill="#9E4D31" d="M1483.843 270.188c.084.14-1.477 5.765-3.143 7.545-1.637 1.753-5.304.574-6.413-1.276-1.11-1.85-.262-3.212 1.7-4.22 1.521-1.126 7.772-2.19 7.856-2.05zm-10.355-18.665c-.727-.143-1.057-.887-.737-1.662.32-.776 1.17-1.29 1.898-1.147 5.21 1.022 7.734 4.238 8.719 7.821.97 3.524.458 7.39-.318 9.916-.242.786-1.052 1.375-1.81 1.316-.757-.06-1.174-.746-.933-1.532.647-2.107 1.083-5.423.268-8.386-.8-2.906-2.793-5.485-7.087-6.326zm34.424 28.911c.396.695 1.328.957 2.08.588.751-.369 1.04-1.23.644-1.924-3.015-5.279-7.573-7.693-12.03-8.514-4.39-.808-8.65-.072-11.28.869-.794.284-1.19 1.109-.886 1.841.303.733 1.193 1.096 1.987.812 2.187-.782 5.848-1.416 9.565-.732 3.648.672 7.378 2.612 9.92 7.06z"/><path fill="#3B3B3B" d="M1549.627 267.094c.238-2.318-1.804-4.37-3.813-4.564-1.547.132-3.39-.524-5.519-1.976-3.507-2.256-3.943-26.065-28.397-36.291-9.306-4.342-24.734-4.087-27.592 2.32-5.797 13.042-1.883 36.841 25.89 48.049 25.934 10.858 36.44-.039 39.431-7.538z"/></g></g><g clip-path="url(#bY)" style="display:block" transform="matrix(-1 0 0 1 1916 -23.5)"><g mask="url(#bZ)" style="display:block"><g clip-path="url(#ca)"><path stroke-linecap="round" stroke-linejoin="round" stroke="#3D3D3D" stroke-width="24" d="M541.75 368c5.75 8.75 22.071 22.16 22.071 22.16s9.503.38 25.471-.07" fill="none" transform="rotate(-10 4050.077 -4835.871)" style="display:block"/><path fill="#3D3D3D" d="M512.018 280.06c14.429 0 26.125 14.439 26.125 32.25s-11.352 31.792-25.781 31.792c-14.429 0-27.084-13.935-27.084-31.746s12.311-32.296 26.74-32.296zm43.423 7.966c27.555.062 53.428 14.596 49.161 35.812-4.533 22.538-19.548 27.499-42.525 28.246-51.772 1.682-68.584-64.197-6.636-64.058z" transform="rotate(-10 4056.122 -4887.942)" style="display:block"/><path fill="#DB8D74" d="M521.5 303c-16.5 11-42 12.5-66 13.5s-53.834 22.53-51 52c2.5 26 27.5 43 54.5 43.5 30.012.556 61-2.5 100.5-24s36.5-55.5 23.5-77-45-19-61.5-8z" transform="rotate(-10 4091.52 -4911.194)" style="display:block"/><g mask="url(#cb)" style="display:block"><path fill="#FFAADE" d="M1468.863 840.933c12.495-6.279-148.707-11.635-120.33 94.2 32.625 121.684 217.518-7.033 184.848 5.993-17.789 7.093-43.037 9.84-57.511 4.971a48.399 48.399 0 0 1-8.417-3.738 44.922 44.922 0 0 1-7.232-5.082c-7.56-6.52-14.39-16.458-18.886-28.206-9.198-24.035 9.239-58.946 27.528-68.138zm-25.218 11.164s-115.231-2.266-95.866 81.646c19.366 83.912 140.333 28.855 140.333 28.855s-61.548-.74-73.94-42.277c-12.173-40.795 29.473-68.224 29.473-68.224zm-33.848 27.4-3.34 6.2 11.424-1.754 2.955-6.346-11.04 1.9zm17.846-23.117s-96.335 12.742-76.822 77.335c19.512 64.593 117.831 33.45 117.831 33.45s-48.92-3.776-62.292-45.11c-11.591-35.836 21.283-65.675 21.283-65.675zm-14.255 61.3-9.32 3.73 3.178 8.257 8.853-4.396-2.711-7.592z"/><path fill="#A56641" d="M1443.645 852.097s-115.231-2.266-95.866 81.646c19.366 83.912 140.333 28.855 140.333 28.855s-61.548-.74-73.94-42.277c-12.173-40.795 29.473-68.224 29.473-68.224z"/><path fill="#2CE69B" d="m1409.797 879.498-3.34 6.2 11.424-1.755 2.955-6.346-11.04 1.9zm17.846-23.118s-96.335 12.742-76.822 77.335c19.512 64.593 117.831 33.45 117.831 33.45s-48.92-3.776-62.292-45.11c-11.591-35.836 21.283-65.675 21.283-65.675zm-14.255 61.3-9.32 3.73 3.178 8.257 8.853-4.396-2.711-7.592z"/></g><g mask="url(#cc)" style="display:block"><path fill="#3D3D3D" d="M1459.794 802.944c-17.88 4.422-21.207 26.09-19.311 40.214 1.897 14.136 6.172 29.375 22.174 35.692 16.795 6.63 34.48-7.095 32.736-37.25-1.258-21.76-17.72-43.078-35.599-38.656z"/></g><path fill="#3D3D3D" d="M557.75 265.5c16.983 0 30.75 13.711 30.75 30.625s-13.767 30.625-30.75 30.625S527 313.039 527 296.125s13.767-30.625 30.75-30.625z" transform="rotate(-10 4050.02 -4784.77)" style="display:block"/><path fill="#DB8D74" d="M512.021 320.5c6.639 0 12.02 5.382 12.02 12.021 0 6.639-5.381 12.02-12.02 12.02-6.639 0-12.021-5.381-12.021-12.02 0-6.639 5.382-12.021 12.021-12.021z" transform="rotate(-10 4432.435 -6340.013) scale(.5 .75)" style="display:block"/><g style="display:block"><path fill="#B82C2C" d="M1490.73 904.731a2.511 2.511 0 0 1 3.405-1.008l26.812 14.57a2.511 2.511 0 0 1 1.008 3.406l-.14.258c-4.685 8.624-15.474 11.814-24.097 7.13-8.624-4.687-11.815-15.476-7.13-24.098l.141-.258z"/><path fill="#FD5050" d="M1508.733 931.06a17.69 17.69 0 0 1-11.016-1.974 17.713 17.713 0 0 1-8.487-10.347 17.65 17.65 0 0 1 11.026 1.965 17.668 17.668 0 0 1 8.477 10.357z" opacity=".8"/></g><path stroke-linecap="round" stroke-linejoin="round" stroke="#3D3D3D" stroke-width="24" d="M536.818 374.269c8.057 4.734 26.951 16.388 26.951 16.388l26.417.185" fill="none" transform="rotate(-10 4050.077 -4835.871)" style="display:block"/><g style="display:block"><path fill="#FFF" d="M1530.698 900.895s13.448-6.935 18.02-8.018c1.847-8.122 5.557-24.31-3.736-23.41-6.418.62-10.024 9.595-10.753 13.571l-3.531 17.857zm-7.44-30.018-.9-.313c-5.748-1.242-11.756 1.104-13.166 6.672l-3.508 13.67c11.09 1.673 20.347 8.774 20.347 8.774l3.725-16.4c.97-3.829-1.287-11.029-6.499-12.403z"/><path fill="#3D3D3D" d="M1536.667 880.914c.363-2.834 2.088-5.1 4.418-4.835 2.33.265 3.362 2.735 3 5.569l-.23 1.786c-.362 2.834-2.105 4.93-4.31 4.695-2.205-.236-3.47-2.595-3.107-5.43l.229-1.785zm-26.635-2.023c.583-2.764 3.635-4.346 5.58-3.984 1.944.361 3.8 3.138 3.216 5.902l-.367 1.74c-.583 2.764-3.385 4.469-5.33 4.107-1.944-.362-4.05-3.261-3.467-6.025l.368-1.74z"/></g><path stroke-linecap="round" stroke-linejoin="round" stroke="#3D3D3D" stroke-width="12" d="M568.75 333.5s7.5-2 11.5 1m17.608 3.473s7.344 2.513 8.997 7.232" fill="none" transform="rotate(-10 4023.292 -4817.698)" style="display:block"/><path fill="#DB8D74" d="M571.295 372.25c4.029 0 7.295 3.217 7.295 7.186s-3.266 7.186-7.295 7.186-7.295-3.217-7.295-7.186 3.266-7.186 7.295-7.186z" transform="rotate(-10 3858.903 -4490.175) scale(1.1)" style="display:block"/></g></g><g style="display:block"><path fill="#DB8D74" d="M1426.493 950.161c-7.73 3.36-18.578 7.44-15.624 17.876 2.65 9.367 14.43 8.408 22.008 4.914 3.97 4.667 9.756 1.05 7.45-3.816-3.862-8.145-7.338-21.798-13.834-18.974z"/><path stroke-linecap="round" stroke-linejoin="round" stroke="#FFAADE" stroke-width="25" d="m1431.217 928.247-.26 27.77" fill="none"/></g></g></g></svg>